  0
SECTION
  2
HEADER
  9
$ACADVER
  1
AC1014
  9
$ACADMAINTVER
 70
     9
  9
$DWGCODEPAGE
  3
ANSI_1252
  9
$INSBASE
 10
0.0
 20
0.0
 30
0.0
  9
$EXTMIN
 10
-137.0
 20
-108.0
 30
0.0
  9
$EXTMAX
 10
136.9999999999999
 20
108.0
 30
0.0
  9
$LIMMIN
 10
0.0
 20
0.0
  9
$LIMMAX
 10
12.0
 20
9.0
  9
$ORTHOMODE
 70
     0
  9
$REGENMODE
 70
     1
  9
$FILLMODE
 70
     1
  9
$QTEXTMODE
 70
     0
  9
$MIRRTEXT
 70
     0
  9
$DRAGMODE
 70
     2
  9
$LTSCALE
 40
1.0
  9
$OSMODE
 70
   511
  9
$ATTMODE
 70
     1
  9
$TEXTSIZE
 40
0.2
  9
$TRACEWID
 40
0.05
  9
$TEXTSTYLE
  7
STANDARD
  9
$CLAYER
  8
PCB_DIST
  9
$CELTYPE
  6
BYLAYER
  9
$CECOLOR
 62
   256
  9
$CELTSCALE
 40
1.0
  9
$DELOBJ
 70
     1
  9
$DISPSILH
 70
     0
  9
$DIMSCALE
 40
1.0
  9
$DIMASZ
 40
0.18
  9
$DIMEXO
 40
0.0625
  9
$DIMDLI
 40
0.38
  9
$DIMRND
 40
0.0
  9
$DIMDLE
 40
0.0
  9
$DIMEXE
 40
0.18
  9
$DIMTP
 40
0.0
  9
$DIMTM
 40
0.0
  9
$DIMTXT
 40
0.18
  9
$DIMCEN
 40
-0.09
  9
$DIMTSZ
 40
0.0
  9
$DIMTOL
 70
     0
  9
$DIMLIM
 70
     0
  9
$DIMTIH
 70
     1
  9
$DIMTOH
 70
     1
  9
$DIMSE1
 70
     0
  9
$DIMSE2
 70
     0
  9
$DIMTAD
 70
     0
  9
$DIMZIN
 70
     0
  9
$DIMBLK
  1

  9
$DIMASO
 70
     1
  9
$DIMSHO
 70
     1
  9
$DIMPOST
  1

  9
$DIMAPOST
  1

  9
$DIMALT
 70
     0
  9
$DIMALTD
 70
     2
  9
$DIMALTF
 40
25.4
  9
$DIMLFAC
 40
1.0
  9
$DIMTOFL
 70
     0
  9
$DIMTVP
 40
0.0
  9
$DIMTIX
 70
     0
  9
$DIMSOXD
 70
     0
  9
$DIMSAH
 70
     0
  9
$DIMBLK1
  1

  9
$DIMBLK2
  1

  9
$DIMSTYLE
  2
STANDARD
  9
$DIMCLRD
 70
     0
  9
$DIMCLRE
 70
     0
  9
$DIMCLRT
 70
     0
  9
$DIMTFAC
 40
1.0
  9
$DIMGAP
 40
0.09
  9
$DIMJUST
 70
     0
  9
$DIMSD1
 70
     0
  9
$DIMSD2
 70
     0
  9
$DIMTOLJ
 70
     1
  9
$DIMTZIN
 70
     0
  9
$DIMALTZ
 70
     0
  9
$DIMALTTZ
 70
     0
  9
$DIMFIT
 70
     5
  9
$DIMUPT
 70
     0
  9
$DIMUNIT
 70
     2
  9
$DIMDEC
 70
     4
  9
$DIMTDEC
 70
     4
  9
$DIMALTU
 70
     2
  9
$DIMALTTD
 70
     2
  9
$DIMTXSTY
  7
STANDARD
  9
$DIMAUNIT
 70
     0
  9
$LUNITS
 70
     2
  9
$LUPREC
 70
     4
  9
$SKETCHINC
 40
0.1
  9
$FILLETRAD
 40
1.0
  9
$AUNITS
 70
     0
  9
$AUPREC
 70
     0
  9
$MENU
  1
.
  9
$ELEVATION
 40
0.0
  9
$PELEVATION
 40
0.0
  9
$THICKNESS
 40
0.0
  9
$LIMCHECK
 70
     0
  9
$CHAMFERA
 40
0.0
  9
$CHAMFERB
 40
0.0
  9
$CHAMFERC
 40
0.0
  9
$CHAMFERD
 40
0.0
  9
$SKPOLY
 70
     0
  9
$TDCREATE
 40
2452643.063384271
  9
$TDUPDATE
 40
2458909.345542489
  9
$TDINDWG
 40
0.0000000231
  9
$TDUSRTIMER
 40
0.0011898843
  9
$USRTIMER
 70
     1
  9
$ANGBASE
 50
0.0
  9
$ANGDIR
 70
     0
  9
$PDMODE
 70
     0
  9
$PDSIZE
 40
0.0
  9
$PLINEWID
 40
0.0
  9
$COORDS
 70
     1
  9
$SPLFRAME
 70
     0
  9
$SPLINETYPE
 70
     6
  9
$SPLINESEGS
 70
     8
  9
$ATTDIA
 70
     0
  9
$ATTREQ
 70
     1
  9
$HANDLING
 70
     1
  9
$HANDSEED
  5
6A8
  9
$SURFTAB1
 70
     6
  9
$SURFTAB2
 70
     6
  9
$SURFTYPE
 70
     6
  9
$SURFU
 70
     6
  9
$SURFV
 70
     6
  9
$UCSNAME
  2

  9
$UCSORG
 10
0.0
 20
0.0
 30
0.0
  9
$UCSXDIR
 10
1.0
 20
0.0
 30
0.0
  9
$UCSYDIR
 10
0.0
 20
1.0
 30
0.0
  9
$PUCSNAME
  2

  9
$PUCSORG
 10
0.0
 20
0.0
 30
0.0
  9
$PUCSXDIR
 10
1.0
 20
0.0
 30
0.0
  9
$PUCSYDIR
 10
0.0
 20
1.0
 30
0.0
  9
$USERI1
 70
     0
  9
$USERI2
 70
     0
  9
$USERI3
 70
     0
  9
$USERI4
 70
     0
  9
$USERI5
 70
     0
  9
$USERR1
 40
0.0
  9
$USERR2
 40
0.0
  9
$USERR3
 40
0.0
  9
$USERR4
 40
0.0
  9
$USERR5
 40
0.0
  9
$WORLDVIEW
 70
     1
  9
$SHADEDGE
 70
     3
  9
$SHADEDIF
 70
    70
  9
$TILEMODE
 70
     1
  9
$MAXACTVP
 70
    64
  9
$PINSBASE
 10
0.0
 20
0.0
 30
0.0
  9
$PLIMCHECK
 70
     0
  9
$PEXTMIN
 10
0.0
 20
0.0
 30
0.0
  9
$PEXTMAX
 10
0.0
 20
0.0
 30
0.0
  9
$PLIMMIN
 10
0.0
 20
0.0
  9
$PLIMMAX
 10
0.0
 20
0.0
  9
$UNITMODE
 70
     0
  9
$VISRETAIN
 70
     1
  9
$PLINEGEN
 70
     0
  9
$PSLTSCALE
 70
     1
  9
$TREEDEPTH
 70
  3020
  9
$PICKSTYLE
 70
     1
  9
$CMLSTYLE
  2
STANDARD
  9
$CMLJUST
 70
     0
  9
$CMLSCALE
 40
1.0
  9
$PROXYGRAPHICS
 70
     1
  9
$MEASUREMENT
 70
     0
  0
ENDSEC
  0
SECTION
  2
CLASSES
  0
CLASS
  1
ACDBDICTIONARYWDFLT
  2
AcDbDictionaryWithDefault
  3
ObjectDBX Classes
 90
        0
280
     0
281
     0
  0
CLASS
  1
ACDBPLACEHOLDER
  2
AcDbPlaceHolder
  3
ObjectDBX Classes
 90
        0
280
     0
281
     0
  0
CLASS
  1
LAYOUT
  2
AcDbLayout
  3
ObjectDBX Classes
 90
        0
280
     0
281
     0
  0
CLASS
  1
DICTIONARYVAR
  2
AcDbDictionaryVar
  3
ObjectDBX Classes
 90
        0
280
     0
281
     0
  0
CLASS
  1
TABLESTYLE
  2
AcDbTableStyle
  3
ObjectDBX Classes
 90
     4095
280
     0
281
     0
  0
CLASS
  1
MATERIAL
  2
AcDbMaterial
  3
ObjectDBX Classes
 90
     1153
280
     0
281
     0
  0
CLASS
  1
VISUALSTYLE
  2
AcDbVisualStyle
  3
ObjectDBX Classes
 90
     4095
280
     0
281
     0
  0
CLASS
  1
SCALE
  2
AcDbScale
  3
ObjectDBX Classes
 90
     1153
280
     0
281
     0
  0
CLASS
  1
CELLSTYLEMAP
  2
AcDbCellStyleMap
  3
ObjectDBX Classes
 90
     1152
280
     0
281
     0
  0
CLASS
  1
RASTERVARIABLES
  2
AcDbRasterVariables
  3
ISM
 90
        0
280
     0
281
     0
  0
CLASS
  1
SUN
  2
AcDbSun
  3
SCENEOE
 90
     1153
280
     0
281
     0
  0
CLASS
  1
MLEADERSTYLE
  2
AcDbMLeaderStyle
  3
ACDB_MLEADERSTYLE_CLASS
 90
     4095
280
     0
281
     0
  0
CLASS
  1
XRECORD
  2
AcDbXrecord
  3
ObjectDBX Classes
 90
        0
280
     0
281
     0
  0
CLASS
  1
LWPOLYLINE
  2
AcDbPolyline
  3
ObjectDBX Classes
 90
        0
280
     0
281
     1
  0
CLASS
  1
HATCH
  2
AcDbHatch
  3
ObjectDBX Classes
 90
        0
280
     0
281
     1
  0
ENDSEC
  0
SECTION
  2
TABLES
  0
TABLE
  2
VPORT
  5
8
330
0
100
AcDbSymbolTable
 70
     1
  0
VPORT
  5
94
330
8
100
AcDbSymbolTableRecord
100
AcDbViewportTableRecord
  2
*ACTIVE
 70
     0
 10
0.0
 20
0.0
 11
1.0
 21
1.0
 12
-3.350222494639837
 22
8.909898257481643
 13
0.0
 23
0.0
 14
0.5
 24
0.5
 15
0.5
 25
0.5
 16
0.0
 26
0.0
 36
1.0
 17
-27.66959356597977
 27
-19.53870295786209
 37
0.0
 40
200.192776641672
 41
2.0
 42
50.0
 43
0.0
 44
0.0
 50
0.0
 51
0.0
 71
    16
 72
  1000
 73
     1
 74
     3
 75
     0
 76
     0
 77
     0
 78
     0
  0
ENDTAB
  0
TABLE
  2
LTYPE
  5
5
330
0
100
AcDbSymbolTable
 70
     1
  0
LTYPE
  5
14
330
5
100
AcDbSymbolTableRecord
100
AcDbLinetypeTableRecord
  2
BYBLOCK
 70
     0
  3

 72
    65
 73
     0
 40
0.0
  0
LTYPE
  5
15
330
5
100
AcDbSymbolTableRecord
100
AcDbLinetypeTableRecord
  2
BYLAYER
 70
     0
  3

 72
    65
 73
     0
 40
0.0
  0
LTYPE
  5
16
330
5
100
AcDbSymbolTableRecord
100
AcDbLinetypeTableRecord
  2
CONTINUOUS
 70
     0
  3
Solid line
 72
    65
 73
     0
 40
0.0
  0
ENDTAB
  0
TABLE
  2
LAYER
  5
2
102
{ACAD_XDICTIONARY
360
183
102
}
330
0
100
AcDbSymbolTable
 70
     9
  0
LAYER
  5
10
330
2
100
AcDbSymbolTableRecord
100
AcDbLayerTableRecord
  2
0
 70
     0
 62
     7
  6
CONTINUOUS
  0
LAYER
  5
186
330
2
100
AcDbSymbolTableRecord
100
AcDbLayerTableRecord
  2
TEC
 70
     0
 62
     7
  6
CONTINUOUS
1001
ACAECLAYERSTANDARD
1000

1000

  0
LAYER
  5
18A
330
2
100
AcDbSymbolTableRecord
100
AcDbLayerTableRecord
  2
H_COMPRESS
 70
     0
 62
     7
  6
CONTINUOUS
1001
ACAECLAYERSTANDARD
1000

1000

  0
LAYER
  5
18D
330
2
100
AcDbSymbolTableRecord
100
AcDbLayerTableRecord
  2
PCB_DIST
 70
     0
 62
     7
  6
CONTINUOUS
1001
ACAECLAYERSTANDARD
1000

1000

  0
LAYER
  5
190
330
2
100
AcDbSymbolTableRecord
100
AcDbLayerTableRecord
  2
PCB_LIGHT
 70
     0
 62
     7
  6
CONTINUOUS
1001
ACAECLAYERSTANDARD
1000

1000

  0
LAYER
  5
2C8
330
2
100
AcDbSymbolTableRecord
100
AcDbLayerTableRecord
  2
SILK
 70
     0
 62
     7
  6
CONTINUOUS
1001
ACAECLAYERSTANDARD
1000

1000

  0
LAYER
  5
331
330
2
100
AcDbSymbolTableRecord
100
AcDbLayerTableRecord
  2
ARDUINO
 70
     0
 62
     7
  6
CONTINUOUS
1001
ACAECLAYERSTANDARD
1000

1000

  0
LAYER
  5
3F8
330
2
100
AcDbSymbolTableRecord
100
AcDbLayerTableRecord
  2
6_PIN_CONNECTORS
 70
     0
 62
     7
  6
CONTINUOUS
1001
ACAECLAYERSTANDARD
1000

1000

  0
LAYER
  5
5F4
330
2
100
AcDbSymbolTableRecord
100
AcDbLayerTableRecord
  2
DEFPOINTS
 70
     0
 62
     7
  6
CONTINUOUS
  0
ENDTAB
  0
TABLE
  2
STYLE
  5
3
330
0
100
AcDbSymbolTable
 70
     2
  0
STYLE
  5
11
330
3
100
AcDbSymbolTableRecord
100
AcDbTextStyleTableRecord
  2
STANDARD
 70
     0
 40
0.0
 41
1.0
 50
0.0
 71
     0
 42
0.2
  3
arial.ttf
  4

1001
ACAD
1000
Arial
1071
        0
  0
STYLE
  5
125
330
3
100
AcDbSymbolTableRecord
100
AcDbTextStyleTableRecord
  2
ANNOTATIVE
 70
     0
 40
0.0
 41
1.0
 50
0.0
 71
     0
 42
0.2
  3
arial.ttf
  4

1001
ACAD
1000
Arial
1071
        0
1001
ACADANNOTATIVE
1000
AnnotativeData
1002
{
1070
     1
1070
     1
1002
}
  0
ENDTAB
  0
TABLE
  2
VIEW
  5
6
330
0
100
AcDbSymbolTable
 70
     0
  0
ENDTAB
  0
TABLE
  2
UCS
  5
7
330
0
100
AcDbSymbolTable
 70
     0
  0
ENDTAB
  0
TABLE
  2
APPID
  5
9
330
0
100
AcDbSymbolTable
 70
     3
  0
APPID
  5
12
330
9
100
AcDbSymbolTableRecord
100
AcDbRegAppTableRecord
  2
ACAD
 70
     0
  0
APPID
  5
126
330
9
100
AcDbSymbolTableRecord
100
AcDbRegAppTableRecord
  2
ACADANNOTATIVE
 70
     0
  0
APPID
  5
187
330
9
100
AcDbSymbolTableRecord
100
AcDbRegAppTableRecord
  2
ACAECLAYERSTANDARD
 70
     0
  0
ENDTAB
  0
TABLE
  2
DIMSTYLE
  5
A
330
0
100
AcDbSymbolTable
 70
     2
  0
DIMSTYLE
105
27
330
A
100
AcDbSymbolTableRecord
100
AcDbDimStyleTableRecord
  2
STANDARD
 70
     0
  3

  4

  5

  6

  7

 40
1.0
 41
0.18
 42
0.0625
 43
0.38
 44
0.18
 45
0.0
 46
0.0
 47
0.0
 48
0.0
140
0.18
141
-0.09
142
0.0
143
25.4
144
1.0
145
0.0
146
1.0
147
0.09
 71
     0
 72
     0
 73
     1
 74
     1
 75
     0
 76
     0
 77
     0
 78
     0
170
     0
171
     2
172
     0
173
     0
174
     0
175
     0
176
     0
177
     0
178
     0
270
     2
271
     4
272
     4
273
     2
274
     2
340
11
275
     0
280
     0
281
     0
282
     0
283
     1
284
     0
285
     0
286
     0
287
     3
288
     0
  0
DIMSTYLE
105
127
330
A
100
AcDbSymbolTableRecord
100
AcDbDimStyleTableRecord
  2
ANNOTATIVE
 70
     0
  3

  4

  5

  6

  7

 40
0.0
 41
0.18
 42
0.0625
 43
0.38
 44
0.18
 45
0.0
 46
0.0
 47
0.0
 48
0.0
140
0.18
141
-0.09
142
0.0
143
25.4
144
1.0
145
0.0
146
1.0
147
0.09
 71
     0
 72
     0
 73
     1
 74
     1
 75
     0
 76
     0
 77
     0
 78
     0
170
     0
171
     2
172
     0
173
     0
174
     0
175
     0
176
     0
177
     0
178
     0
270
     2
271
     4
272
     4
273
     2
274
     2
340
11
275
     0
280
     0
281
     0
282
     0
283
     1
284
     0
285
     0
286
     0
287
     3
288
     0
1001
ACADANNOTATIVE
1000
AnnotativeData
1002
{
1070
     1
1070
     1
1002
}
  0
ENDTAB
  0
TABLE
  2
BLOCK_RECORD
  5
1
330
0
100
AcDbSymbolTable
 70
     1
  0
BLOCK_RECORD
  5
1F
330
1
100
AcDbSymbolTableRecord
100
AcDbBlockTableRecord
  2
*MODEL_SPACE
  0
BLOCK_RECORD
  5
58
330
1
100
AcDbSymbolTableRecord
100
AcDbBlockTableRecord
  2
*PAPER_SPACE
  0
BLOCK_RECORD
  5
5D
330
1
100
AcDbSymbolTableRecord
100
AcDbBlockTableRecord
  2
*PAPER_SPACE0
  0
ENDTAB
  0
ENDSEC
  0
SECTION
  2
BLOCKS
  0
BLOCK
  5
20
330
1F
100
AcDbEntity
  8
0
100
AcDbBlockBegin
  2
*MODEL_SPACE
 70
     0
 10
0.0
 20
0.0
 30
0.0
  3
*MODEL_SPACE
  1

  0
ENDBLK
  5
21
330
1F
100
AcDbEntity
  8
0
100
AcDbBlockEnd
  0
BLOCK
  5
5A
330
58
100
AcDbEntity
 67
     1
  8
0
100
AcDbBlockBegin
  2
*PAPER_SPACE
 70
     0
 10
0.0
 20
0.0
 30
0.0
  3
*PAPER_SPACE
  1

  0
ENDBLK
  5
5B
330
58
100
AcDbEntity
 67
     1
  8
0
100
AcDbBlockEnd
  0
BLOCK
  5
5F
330
5D
100
AcDbEntity
  8
0
100
AcDbBlockBegin
  2
*PAPER_SPACE0
 70
     0
 10
0.0
 20
0.0
 30
0.0
  3
*PAPER_SPACE0
  1

  0
ENDBLK
  5
60
330
5D
100
AcDbEntity
  8
0
100
AcDbBlockEnd
  0
ENDSEC
  0
SECTION
  2
ENTITIES
  0
LWPOLYLINE
  5
12A
330
1F
100
AcDbEntity
  8
PCB_LIGHT
100
AcDbPolyline
 90
        4
 70
     1
 43
0.0
 10
-108.0
 20
-108.0
 10
-108.0
 20
-35.99999999999999
 10
-36.0
 20
-35.99999999999999
 10
-36.0
 20
-108.0
  0
CIRCLE
  5
154
330
1F
100
AcDbEntity
  8
H_COMPRESS
100
AcDbCircle
 10
-103.5
 20
-40.5
 30
0.0
 40
1.725
  0
CIRCLE
  5
162
330
1F
100
AcDbEntity
  8
H_COMPRESS
100
AcDbCircle
 10
-103.5
 20
-103.5
 30
0.0
 40
1.725
  0
CIRCLE
  5
170
330
1F
100
AcDbEntity
  8
H_COMPRESS
100
AcDbCircle
 10
-40.5
 20
-103.5
 30
0.0
 40
1.725
  0
CIRCLE
  5
17E
330
1F
100
AcDbEntity
  8
H_COMPRESS
100
AcDbCircle
 10
-40.5
 20
-40.49999999999999
 30
0.0
 40
1.725
  0
LWPOLYLINE
  5
182
330
1F
100
AcDbEntity
  8
TEC
100
AcDbPolyline
 90
        4
 70
     1
 43
0.0
 10
-97.0
 20
-96.99999999999997
 10
-97.0
 20
-46.99999999999999
 10
-47.0
 20
-46.99999999999999
 10
-47.0
 20
-96.99999999999997
  0
LWPOLYLINE
  5
1E0
330
1F
100
AcDbEntity
  8
PCB_LIGHT
100
AcDbPolyline
 90
        4
 70
     1
 43
0.0
 10
-108.0
 20
-35.99999999999999
 10
-108.0
 20
36.0
 10
-36.0
 20
36.0
 10
-36.0
 20
-35.99999999999999
  0
CIRCLE
  5
1E1
330
1F
100
AcDbEntity
  8
H_COMPRESS
100
AcDbCircle
 10
-103.5
 20
31.5
 30
0.0
 40
1.725
  0
CIRCLE
  5
1E2
330
1F
100
AcDbEntity
  8
H_COMPRESS
100
AcDbCircle
 10
-103.5
 20
-31.49999999999997
 30
0.0
 40
1.725
  0
CIRCLE
  5
1E3
330
1F
100
AcDbEntity
  8
H_COMPRESS
100
AcDbCircle
 10
-40.5
 20
-31.49999999999997
 30
0.0
 40
1.725
  0
CIRCLE
  5
1E4
330
1F
100
AcDbEntity
  8
H_COMPRESS
100
AcDbCircle
 10
-40.5
 20
31.5
 30
0.0
 40
1.725
  0
LWPOLYLINE
  5
1E5
330
1F
100
AcDbEntity
  8
TEC
100
AcDbPolyline
 90
        4
 70
     1
 43
0.0
 10
-97.0
 20
-24.99999999999999
 10
-97.0
 20
25.0
 10
-47.0
 20
25.0
 10
-47.0
 20
-24.99999999999999
  0
LWPOLYLINE
  5
1FF
330
1F
100
AcDbEntity
  8
PCB_LIGHT
100
AcDbPolyline
 90
        4
 70
     1
 43
0.0
 10
-108.0
 20
36.0
 10
-108.0
 20
108.0
 10
-36.0
 20
108.0
 10
-36.0
 20
36.0
  0
CIRCLE
  5
200
330
1F
100
AcDbEntity
  8
H_COMPRESS
100
AcDbCircle
 10
-103.5
 20
103.5
 30
0.0
 40
1.725
  0
CIRCLE
  5
201
330
1F
100
AcDbEntity
  8
H_COMPRESS
100
AcDbCircle
 10
-103.5
 20
40.5
 30
0.0
 40
1.725
  0
CIRCLE
  5
202
330
1F
100
AcDbEntity
  8
H_COMPRESS
100
AcDbCircle
 10
-40.5
 20
40.5
 30
0.0
 40
1.725
  0
CIRCLE
  5
203
330
1F
100
AcDbEntity
  8
H_COMPRESS
100
AcDbCircle
 10
-40.5
 20
103.5
 30
0.0
 40
1.725
  0
LWPOLYLINE
  5
204
330
1F
100
AcDbEntity
  8
TEC
100
AcDbPolyline
 90
        4
 70
     1
 43
0.0
 10
-97.0
 20
47.0
 10
-97.0
 20
97.0
 10
-47.00000000000001
 20
97.0
 10
-47.00000000000001
 20
47.0
  0
LWPOLYLINE
  5
21E
330
1F
100
AcDbEntity
  8
PCB_LIGHT
100
AcDbPolyline
 90
        4
 70
     1
 43
0.0
 10
-36.0
 20
-108.0
 10
-36.0
 20
-35.99999999999999
 10
36.0
 20
-35.99999999999999
 10
36.0
 20
-108.0
  0
CIRCLE
  5
21F
330
1F
100
AcDbEntity
  8
H_COMPRESS
100
AcDbCircle
 10
-31.5
 20
-40.5
 30
0.0
 40
1.725
  0
CIRCLE
  5
220
330
1F
100
AcDbEntity
  8
H_COMPRESS
100
AcDbCircle
 10
-31.5
 20
-103.5
 30
0.0
 40
1.725
  0
CIRCLE
  5
221
330
1F
100
AcDbEntity
  8
H_COMPRESS
100
AcDbCircle
 10
31.5
 20
-103.5
 30
0.0
 40
1.725
  0
CIRCLE
  5
222
330
1F
100
AcDbEntity
  8
H_COMPRESS
100
AcDbCircle
 10
31.5
 20
-40.49999999999999
 30
0.0
 40
1.725
  0
LWPOLYLINE
  5
223
330
1F
100
AcDbEntity
  8
TEC
100
AcDbPolyline
 90
        4
 70
     1
 43
0.0
 10
-24.99999999999999
 20
-96.99999999999997
 10
-24.99999999999999
 20
-46.99999999999999
 10
25.0
 20
-46.99999999999999
 10
25.0
 20
-96.99999999999997
  0
LWPOLYLINE
  5
23D
330
1F
100
AcDbEntity
  8
PCB_LIGHT
100
AcDbPolyline
 90
        4
 70
     1
 43
0.0
 10
-36.0
 20
-35.99999999999999
 10
-36.0
 20
36.0
 10
36.0
 20
36.0
 10
36.0
 20
-35.99999999999999
  0
CIRCLE
  5
23E
330
1F
100
AcDbEntity
  8
H_COMPRESS
100
AcDbCircle
 10
-31.5
 20
31.5
 30
0.0
 40
1.725
  0
CIRCLE
  5
23F
330
1F
100
AcDbEntity
  8
H_COMPRESS
100
AcDbCircle
 10
-31.5
 20
-31.49999999999997
 30
0.0
 40
1.725
  0
CIRCLE
  5
240
330
1F
100
AcDbEntity
  8
H_COMPRESS
100
AcDbCircle
 10
31.5
 20
-31.49999999999997
 30
0.0
 40
1.725
  0
CIRCLE
  5
241
330
1F
100
AcDbEntity
  8
H_COMPRESS
100
AcDbCircle
 10
31.5
 20
31.5
 30
0.0
 40
1.725
  0
LWPOLYLINE
  5
242
330
1F
100
AcDbEntity
  8
TEC
100
AcDbPolyline
 90
        4
 70
     1
 43
0.0
 10
-24.99999999999999
 20
-24.99999999999999
 10
-24.99999999999999
 20
25.0
 10
25.0
 20
25.0
 10
25.0
 20
-24.99999999999999
  0
LWPOLYLINE
  5
25C
330
1F
100
AcDbEntity
  8
PCB_LIGHT
100
AcDbPolyline
 90
        4
 70
     1
 43
0.0
 10
-36.0
 20
36.0
 10
-36.0
 20
108.0
 10
36.0
 20
108.0
 10
36.0
 20
36.0
  0
CIRCLE
  5
25D
330
1F
100
AcDbEntity
  8
H_COMPRESS
100
AcDbCircle
 10
-31.5
 20
103.5
 30
0.0
 40
1.725
  0
CIRCLE
  5
25E
330
1F
100
AcDbEntity
  8
H_COMPRESS
100
AcDbCircle
 10
-31.5
 20
40.5
 30
0.0
 40
1.725
  0
CIRCLE
  5
25F
330
1F
100
AcDbEntity
  8
H_COMPRESS
100
AcDbCircle
 10
31.5
 20
40.5
 30
0.0
 40
1.725
  0
CIRCLE
  5
260
330
1F
100
AcDbEntity
  8
H_COMPRESS
100
AcDbCircle
 10
31.5
 20
103.5
 30
0.0
 40
1.725
  0
LWPOLYLINE
  5
261
330
1F
100
AcDbEntity
  8
TEC
100
AcDbPolyline
 90
        4
 70
     1
 43
0.0
 10
-24.99999999999999
 20
47.0
 10
-24.99999999999999
 20
97.0
 10
25.0
 20
97.0
 10
25.0
 20
47.0
  0
LWPOLYLINE
  5
27B
330
1F
100
AcDbEntity
  8
PCB_LIGHT
100
AcDbPolyline
 90
        4
 70
     1
 43
0.0
 10
36.0
 20
-108.0
 10
36.0
 20
-35.99999999999999
 10
108.0
 20
-35.99999999999999
 10
108.0
 20
-108.0
  0
CIRCLE
  5
27C
330
1F
100
AcDbEntity
  8
H_COMPRESS
100
AcDbCircle
 10
40.5
 20
-40.5
 30
0.0
 40
1.725
  0
CIRCLE
  5
27D
330
1F
100
AcDbEntity
  8
H_COMPRESS
100
AcDbCircle
 10
40.5
 20
-103.5
 30
0.0
 40
1.725
  0
CIRCLE
  5
27E
330
1F
100
AcDbEntity
  8
H_COMPRESS
100
AcDbCircle
 10
103.5
 20
-103.5
 30
0.0
 40
1.725
  0
CIRCLE
  5
27F
330
1F
100
AcDbEntity
  8
H_COMPRESS
100
AcDbCircle
 10
103.5
 20
-40.49999999999999
 30
0.0
 40
1.725
  0
LWPOLYLINE
  5
280
330
1F
100
AcDbEntity
  8
TEC
100
AcDbPolyline
 90
        4
 70
     1
 43
0.0
 10
47.0
 20
-96.99999999999997
 10
47.0
 20
-46.99999999999999
 10
97.0
 20
-46.99999999999999
 10
97.0
 20
-96.99999999999997
  0
LWPOLYLINE
  5
29A
330
1F
100
AcDbEntity
  8
PCB_LIGHT
100
AcDbPolyline
 90
        4
 70
     1
 43
0.0
 10
36.0
 20
-35.99999999999999
 10
36.0
 20
36.0
 10
108.0
 20
36.0
 10
108.0
 20
-35.99999999999999
  0
CIRCLE
  5
29B
330
1F
100
AcDbEntity
  8
H_COMPRESS
100
AcDbCircle
 10
40.5
 20
31.5
 30
0.0
 40
1.725
  0
CIRCLE
  5
29C
330
1F
100
AcDbEntity
  8
H_COMPRESS
100
AcDbCircle
 10
40.5
 20
-31.49999999999997
 30
0.0
 40
1.725
  0
CIRCLE
  5
29D
330
1F
100
AcDbEntity
  8
H_COMPRESS
100
AcDbCircle
 10
103.5
 20
-31.49999999999997
 30
0.0
 40
1.725
  0
CIRCLE
  5
29E
330
1F
100
AcDbEntity
  8
H_COMPRESS
100
AcDbCircle
 10
103.5
 20
31.5
 30
0.0
 40
1.725
  0
LWPOLYLINE
  5
29F
330
1F
100
AcDbEntity
  8
TEC
100
AcDbPolyline
 90
        4
 70
     1
 43
0.0
 10
47.0
 20
-24.99999999999999
 10
47.0
 20
25.0
 10
97.0
 20
25.0
 10
97.0
 20
-24.99999999999999
  0
LWPOLYLINE
  5
2B9
330
1F
100
AcDbEntity
  8
PCB_LIGHT
100
AcDbPolyline
 90
        4
 70
     1
 43
0.0
 10
36.0
 20
36.0
 10
36.0
 20
108.0
 10
108.0
 20
108.0
 10
108.0
 20
36.0
  0
CIRCLE
  5
2BA
330
1F
100
AcDbEntity
  8
H_COMPRESS
100
AcDbCircle
 10
40.5
 20
103.5
 30
0.0
 40
1.725
  0
CIRCLE
  5
2BB
330
1F
100
AcDbEntity
  8
H_COMPRESS
100
AcDbCircle
 10
40.5
 20
40.5
 30
0.0
 40
1.725
  0
CIRCLE
  5
2BC
330
1F
100
AcDbEntity
  8
H_COMPRESS
100
AcDbCircle
 10
103.5
 20
40.5
 30
0.0
 40
1.725
  0
CIRCLE
  5
2BD
330
1F
100
AcDbEntity
  8
H_COMPRESS
100
AcDbCircle
 10
103.5
 20
103.5
 30
0.0
 40
1.725
  0
LWPOLYLINE
  5
2BE
330
1F
100
AcDbEntity
  8
TEC
100
AcDbPolyline
 90
        4
 70
     1
 43
0.0
 10
47.0
 20
47.0
 10
47.0
 20
97.0
 10
97.0
 20
97.0
 10
97.0
 20
47.0
  0
LINE
  5
2CA
330
1F
100
AcDbEntity
  8
SILK
100
AcDbLine
 10
-35.99999999999994
 20
-108.0
 30
0.0
 11
-35.99999999999994
 21
107.9999999999999
 31
0.0
  0
LINE
  5
2D8
330
1F
100
AcDbEntity
  8
SILK
100
AcDbLine
 10
36.0
 20
-108.0
 30
0.0
 11
36.0
 21
108.0
 31
0.0
  0
LINE
  5
31E
330
1F
100
AcDbEntity
  8
SILK
100
AcDbLine
 10
136.9999999999999
 20
36.0
 30
0.0
 11
-137.0
 21
36.0
 31
0.0
  0
LINE
  5
32C
330
1F
100
AcDbEntity
  8
SILK
100
AcDbLine
 10
136.9999999999999
 20
-35.99999999999999
 30
0.0
 11
-137.0
 21
-35.99999999999999
 31
0.0
  0
LWPOLYLINE
  5
333
330
1F
100
AcDbEntity
  8
ARDUINO
100
AcDbPolyline
 90
        4
 70
     1
 43
0.0
 10
-135.7
 20
38.98
 10
-135.7
 20
105.02
 10
-110.3
 20
105.02
 10
-110.3
 20
38.98
  0
LWPOLYLINE
  5
336
330
1F
100
AcDbEntity
  8
PCB_DIST
100
AcDbPolyline
 90
        4
 70
     1
 43
0.0
 10
-137.0
 20
108.0
 10
-137.0
 20
-108.0
 10
136.9999999999999
 20
-108.0
 10
136.9999999999999
 20
108.0
  0
CIRCLE
  5
353
330
1F
100
AcDbEntity
  8
6_PIN_CONNECTORS
100
AcDbCircle
 10
-31.4
 20
-12.0
 30
0.0
 40
4.6
  0
CIRCLE
  5
366
330
1F
100
AcDbEntity
  8
6_PIN_CONNECTORS
100
AcDbCircle
 10
-31.4
 20
12.0
 30
0.0
 40
4.6
  0
CIRCLE
  5
377
330
1F
100
AcDbEntity
  8
6_PIN_CONNECTORS
100
AcDbCircle
 10
-31.4
 20
59.99999999999997
 30
0.0
 40
4.6
  0
CIRCLE
  5
378
330
1F
100
AcDbEntity
  8
6_PIN_CONNECTORS
100
AcDbCircle
 10
-31.4
 20
83.99999999999997
 30
0.0
 40
4.6
  0
CIRCLE
  5
389
330
1F
100
AcDbEntity
  8
6_PIN_CONNECTORS
100
AcDbCircle
 10
-103.4
 20
59.99999999999997
 30
0.0
 40
4.6
  0
CIRCLE
  5
38A
330
1F
100
AcDbEntity
  8
6_PIN_CONNECTORS
100
AcDbCircle
 10
-103.4
 20
83.99999999999997
 30
0.0
 40
4.6
  0
CIRCLE
  5
39B
330
1F
100
AcDbEntity
  8
6_PIN_CONNECTORS
100
AcDbCircle
 10
-103.4
 20
-12.0
 30
0.0
 40
4.6
  0
CIRCLE
  5
39C
330
1F
100
AcDbEntity
  8
6_PIN_CONNECTORS
100
AcDbCircle
 10
-103.4
 20
12.0
 30
0.0
 40
4.6
  0
CIRCLE
  5
3AD
330
1F
100
AcDbEntity
  8
6_PIN_CONNECTORS
100
AcDbCircle
 10
-103.4
 20
-84.00000000000003
 30
0.0
 40
4.6
  0
CIRCLE
  5
3AE
330
1F
100
AcDbEntity
  8
6_PIN_CONNECTORS
100
AcDbCircle
 10
-103.4
 20
-60.00000000000003
 30
0.0
 40
4.6
  0
CIRCLE
  5
3BF
330
1F
100
AcDbEntity
  8
6_PIN_CONNECTORS
100
AcDbCircle
 10
-31.4
 20
-84.00000000000003
 30
0.0
 40
4.6
  0
CIRCLE
  5
3C0
330
1F
100
AcDbEntity
  8
6_PIN_CONNECTORS
100
AcDbCircle
 10
-31.4
 20
-60.00000000000003
 30
0.0
 40
4.6
  0
CIRCLE
  5
3D1
330
1F
100
AcDbEntity
  8
6_PIN_CONNECTORS
100
AcDbCircle
 10
40.6
 20
-84.00000000000003
 30
0.0
 40
4.6
  0
CIRCLE
  5
3D2
330
1F
100
AcDbEntity
  8
6_PIN_CONNECTORS
100
AcDbCircle
 10
40.6
 20
-60.00000000000003
 30
0.0
 40
4.6
  0
CIRCLE
  5
3E3
330
1F
100
AcDbEntity
  8
6_PIN_CONNECTORS
100
AcDbCircle
 10
40.6
 20
-12.0
 30
0.0
 40
4.6
  0
CIRCLE
  5
3E4
330
1F
100
AcDbEntity
  8
6_PIN_CONNECTORS
100
AcDbCircle
 10
40.6
 20
12.0
 30
0.0
 40
4.6
  0
CIRCLE
  5
3F5
330
1F
100
AcDbEntity
  8
6_PIN_CONNECTORS
100
AcDbCircle
 10
40.6
 20
59.99999999999997
 30
0.0
 40
4.6
  0
CIRCLE
  5
3F6
330
1F
100
AcDbEntity
  8
6_PIN_CONNECTORS
100
AcDbCircle
 10
40.6
 20
83.99999999999997
 30
0.0
 40
4.6
  0
LWPOLYLINE
  5
3FE
330
1F
100
AcDbEntity
  8
ARDUINO
100
AcDbPolyline
 90
        4
 70
     1
 43
0.0
 10
-128.5971885361139
 20
37.98
 10
-128.5971885361139
 20
42.87753996909967
 10
-117.4028114638861
 20
42.87753996909967
 10
-117.4028114638861
 20
37.98
  0
CIRCLE
  5
45D
330
1F
100
AcDbEntity
  8
ARDUINO
100
AcDbCircle
 10
-133.13
 20
61.04000000000001
 30
0.0
 40
0.5
  0
CIRCLE
  5
45E
330
1F
100
AcDbEntity
  8
ARDUINO
100
AcDbCircle
 10
-133.13
 20
63.58000000000001
 30
0.0
 40
0.5
  0
CIRCLE
  5
45F
330
1F
100
AcDbEntity
  8
ARDUINO
100
AcDbCircle
 10
-133.13
 20
66.12
 30
0.0
 40
0.5
  0
CIRCLE
  5
460
330
1F
100
AcDbEntity
  8
ARDUINO
100
AcDbCircle
 10
-133.13
 20
68.66000000000001
 30
0.0
 40
0.5
  0
CIRCLE
  5
461
330
1F
100
AcDbEntity
  8
ARDUINO
100
AcDbCircle
 10
-133.13
 20
71.2
 30
0.0
 40
0.5
  0
CIRCLE
  5
462
330
1F
100
AcDbEntity
  8
ARDUINO
100
AcDbCircle
 10
-133.13
 20
73.74000000000001
 30
0.0
 40
0.5
  0
CIRCLE
  5
463
330
1F
100
AcDbEntity
  8
ARDUINO
100
AcDbCircle
 10
-133.13
 20
76.28
 30
0.0
 40
0.5
  0
CIRCLE
  5
464
330
1F
100
AcDbEntity
  8
ARDUINO
100
AcDbCircle
 10
-133.13
 20
78.82000000000001
 30
0.0
 40
0.5
  0
CIRCLE
  5
465
330
1F
100
AcDbEntity
  8
ARDUINO
100
AcDbCircle
 10
-133.13
 20
81.36
 30
0.0
 40
0.5
  0
CIRCLE
  5
466
330
1F
100
AcDbEntity
  8
ARDUINO
100
AcDbCircle
 10
-133.13
 20
83.9
 30
0.0
 40
0.5
  0
CIRCLE
  5
467
330
1F
100
AcDbEntity
  8
ARDUINO
100
AcDbCircle
 10
-133.13
 20
86.44
 30
0.0
 40
0.5
  0
CIRCLE
  5
468
330
1F
100
AcDbEntity
  8
ARDUINO
100
AcDbCircle
 10
-133.13
 20
88.98
 30
0.0
 40
0.5
  0
CIRCLE
  5
469
330
1F
100
AcDbEntity
  8
ARDUINO
100
AcDbCircle
 10
-133.13
 20
91.52000000000001
 30
0.0
 40
0.5
  0
CIRCLE
  5
46A
330
1F
100
AcDbEntity
  8
ARDUINO
100
AcDbCircle
 10
-133.13
 20
94.06
 30
0.0
 40
0.5
  0
CIRCLE
  5
48B
330
1F
100
AcDbEntity
  8
ARDUINO
100
AcDbCircle
 10
-112.87
 20
61.04000000000001
 30
0.0
 40
0.5
  0
CIRCLE
  5
48C
330
1F
100
AcDbEntity
  8
ARDUINO
100
AcDbCircle
 10
-112.87
 20
63.58000000000001
 30
0.0
 40
0.5
  0
CIRCLE
  5
48D
330
1F
100
AcDbEntity
  8
ARDUINO
100
AcDbCircle
 10
-112.87
 20
66.12
 30
0.0
 40
0.5
  0
CIRCLE
  5
48E
330
1F
100
AcDbEntity
  8
ARDUINO
100
AcDbCircle
 10
-112.87
 20
68.66000000000001
 30
0.0
 40
0.5
  0
CIRCLE
  5
48F
330
1F
100
AcDbEntity
  8
ARDUINO
100
AcDbCircle
 10
-112.87
 20
71.2
 30
0.0
 40
0.5
  0
CIRCLE
  5
490
330
1F
100
AcDbEntity
  8
ARDUINO
100
AcDbCircle
 10
-112.87
 20
73.74000000000001
 30
0.0
 40
0.5
  0
CIRCLE
  5
491
330
1F
100
AcDbEntity
  8
ARDUINO
100
AcDbCircle
 10
-112.87
 20
76.28
 30
0.0
 40
0.5
  0
CIRCLE
  5
492
330
1F
100
AcDbEntity
  8
ARDUINO
100
AcDbCircle
 10
-112.87
 20
78.82000000000001
 30
0.0
 40
0.5
  0
CIRCLE
  5
493
330
1F
100
AcDbEntity
  8
ARDUINO
100
AcDbCircle
 10
-112.87
 20
81.36
 30
0.0
 40
0.5
  0
CIRCLE
  5
494
330
1F
100
AcDbEntity
  8
ARDUINO
100
AcDbCircle
 10
-112.87
 20
83.9
 30
0.0
 40
0.5
  0
CIRCLE
  5
495
330
1F
100
AcDbEntity
  8
ARDUINO
100
AcDbCircle
 10
-112.87
 20
86.44
 30
0.0
 40
0.5
  0
CIRCLE
  5
496
330
1F
100
AcDbEntity
  8
ARDUINO
100
AcDbCircle
 10
-112.87
 20
88.98
 30
0.0
 40
0.5
  0
CIRCLE
  5
497
330
1F
100
AcDbEntity
  8
ARDUINO
100
AcDbCircle
 10
-112.87
 20
91.52000000000001
 30
0.0
 40
0.5
  0
CIRCLE
  5
498
330
1F
100
AcDbEntity
  8
ARDUINO
100
AcDbCircle
 10
-112.87
 20
94.06
 30
0.0
 40
0.5
  0
LWPOLYLINE
  5
4B0
330
1F
100
AcDbEntity
  8
PCB_DIST
100
AcDbPolyline
 90
       10
 70
     1
 43
0.0
 10
-97.5
 20
42.30758682474865
 10
-97.5
 20
96.5
 42
-0.414213562373095
 10
-96.5
 20
97.5
 10
-47.50000000000001
 20
97.5
 42
-0.414213562373095
 10
-46.50000000000001
 20
96.5
 10
-46.50000000000001
 20
42.30758682474865
 42
-0.9999999999999999
 10
-49.00000000000001
 20
42.30758682474865
 10
-49.0
 20
46.5
 10
-95.0
 20
46.5
 10
-95.0
 20
42.30758682474865
 42
-0.9999999999999999
  0
LWPOLYLINE
  5
4E8
330
1F
100
AcDbEntity
  8
PCB_DIST
100
AcDbPolyline
 90
       10
 70
     1
 43
0.0
 10
-25.5
 20
42.30758682474865
 10
-25.5
 20
96.5
 42
-0.414213562373095
 10
-24.5
 20
97.5
 10
24.49999999999999
 20
97.5
 42
-0.414213562373095
 10
25.49999999999999
 20
96.5
 10
25.49999999999999
 20
42.30758682474865
 42
-0.9999999999999999
 10
22.99999999999999
 20
42.30758682474865
 10
23.0
 20
46.5
 10
-23.0
 20
46.5
 10
-23.0
 20
42.30758682474865
 42
-0.9999999999999999
  0
LWPOLYLINE
  5
4FA
330
1F
100
AcDbEntity
  8
PCB_DIST
100
AcDbPolyline
 90
       10
 70
     1
 43
0.0
 10
46.5
 20
42.30758682474865
 10
46.5
 20
96.5
 42
-0.414213562373095
 10
47.5
 20
97.5
 10
96.5
 20
97.5
 42
-0.414213562373095
 10
97.5
 20
96.5
 10
97.5
 20
42.30758682474865
 42
-0.9999999999999999
 10
95.0
 20
42.30758682474865
 10
95.0
 20
46.5
 10
49.0
 20
46.5
 10
49.0
 20
42.30758682474865
 42
-0.9999999999999999
  0
LWPOLYLINE
  5
50C
330
1F
100
AcDbEntity
  8
PCB_DIST
100
AcDbPolyline
 90
       10
 70
     1
 43
0.0
 10
46.50000000000001
 20
29.69241317525135
 10
46.49999999999999
 20
-24.5
 42
0.414213562373095
 10
47.49999999999999
 20
-25.5
 10
96.49999999999999
 20
-25.50000000000002
 42
0.414213562373095
 10
97.49999999999999
 20
-24.50000000000002
 10
97.50000000000001
 20
29.69241317525133
 42
0.9999999999999999
 10
95.00000000000001
 20
29.69241317525133
 10
95.00000000000001
 20
25.49999999999998
 10
49.00000000000001
 20
25.5
 10
49.00000000000001
 20
29.69241317525135
 42
0.9999999999999999
  0
LWPOLYLINE
  5
51E
330
1F
100
AcDbEntity
  8
PCB_DIST
100
AcDbPolyline
 90
       10
 70
     1
 43
0.0
 10
-25.49999999999999
 20
29.69241317525139
 10
-25.50000000000001
 20
-24.49999999999996
 42
0.414213562373095
 10
-24.50000000000001
 20
-25.49999999999996
 10
24.49999999999998
 20
-25.49999999999999
 42
0.414213562373095
 10
25.49999999999998
 20
-24.49999999999999
 10
25.5
 20
29.69241317525136
 42
0.9999999999999999
 10
23.0
 20
29.69241317525136
 10
23.00000000000001
 20
25.50000000000001
 10
-22.99999999999999
 20
25.50000000000004
 10
-22.99999999999999
 20
29.69241317525139
 42
0.9999999999999999
  0
LWPOLYLINE
  5
530
330
1F
100
AcDbEntity
  8
PCB_DIST
100
AcDbPolyline
 90
       10
 70
     1
 43
0.0
 10
-97.5
 20
29.69241317525136
 10
-97.5
 20
-24.49999999999999
 42
0.414213562373095
 10
-96.5
 20
-25.49999999999999
 10
-47.50000000000001
 20
-25.49999999999999
 42
0.414213562373095
 10
-46.50000000000001
 20
-24.49999999999999
 10
-46.50000000000001
 20
29.69241317525136
 42
0.9999999999999999
 10
-49.00000000000001
 20
29.69241317525136
 10
-49.0
 20
25.50000000000001
 10
-95.0
 20
25.50000000000001
 10
-95.0
 20
29.69241317525136
 42
0.9999999999999999
  0
LWPOLYLINE
  5
542
330
1F
100
AcDbEntity
  8
PCB_DIST
100
AcDbPolyline
 90
       10
 70
     1
 43
0.0
 10
-97.5
 20
-101.6924131752513
 10
-97.5
 20
-47.5
 42
-0.414213562373095
 10
-96.5
 20
-46.5
 10
-47.50000000000001
 20
-46.5
 42
-0.414213562373095
 10
-46.50000000000001
 20
-47.5
 10
-46.50000000000001
 20
-101.6924131752513
 42
-0.9999999999999999
 10
-49.00000000000001
 20
-101.6924131752513
 10
-49.0
 20
-97.5
 10
-95.0
 20
-97.5
 10
-95.0
 20
-101.6924131752513
 42
-0.9999999999999999
  0
LWPOLYLINE
  5
554
330
1F
100
AcDbEntity
  8
PCB_DIST
100
AcDbPolyline
 90
       10
 70
     1
 43
0.0
 10
-25.5
 20
-101.6924131752513
 10
-25.5
 20
-47.5
 42
-0.414213562373095
 10
-24.5
 20
-46.5
 10
24.49999999999999
 20
-46.5
 42
-0.414213562373095
 10
25.49999999999999
 20
-47.5
 10
25.49999999999999
 20
-101.6924131752513
 42
-0.9999999999999999
 10
22.99999999999999
 20
-101.6924131752513
 10
23.0
 20
-97.5
 10
-23.0
 20
-97.5
 10
-23.0
 20
-101.6924131752513
 42
-0.9999999999999999
  0
LWPOLYLINE
  5
566
330
1F
100
AcDbEntity
  8
PCB_DIST
100
AcDbPolyline
 90
       10
 70
     1
 43
0.0
 10
46.5
 20
-101.6924131752513
 10
46.5
 20
-47.5
 42
-0.414213562373095
 10
47.5
 20
-46.5
 10
96.5
 20
-46.5
 42
-0.414213562373095
 10
97.5
 20
-47.5
 10
97.5
 20
-101.6924131752513
 42
-0.9999999999999999
 10
95.0
 20
-101.6924131752513
 10
95.0
 20
-97.5
 10
49.0
 20
-97.5
 10
49.0
 20
-101.6924131752513
 42
-0.9999999999999999
  0
CIRCLE
  5
575
330
1F
100
AcDbEntity
  8
PCB_DIST
100
AcDbCircle
 10
-128.0
 20
-97.99999999999991
 30
0.0
 40
1.5
  0
LWPOLYLINE
  5
5D2
330
1F
100
AcDbEntity
  8
PCB_DIST
100
AcDbPolyline
 90
        4
 70
     1
 43
0.0
 10
127.6464466094066
 20
99.76776695296637
 10
126.2322330470335
 20
98.35355339059326
 42
0.9999999999999997
 10
128.3535533905932
 20
96.23223304703363
 10
129.7677669529663
 20
97.64644660940674
 42
1.0
  0
ENDSEC
  0
SECTION
  2
OBJECTS
  0
DICTIONARY
  5
C
330
0
100
AcDbDictionary
  3
ACAD_DETAILVIEWSTYLE
350
122
  3
ACAD_GROUP
350
D
  3
ACAD_IMAGE_VARS
350
DC
  3
ACAD_MLINESTYLE
350
17
  3
ACAD_SCALELIST
350
64D
  3
ACAD_SECTIONVIEWSTYLE
350
123
  3
ACDBVARIABLEDICTIONARY
350
66
  3
APPDATA
350
E1
  3
DWGPROPS
350
6A7
  0
DICTIONARY
  5
183
330
2
100
AcDbDictionary
280
     1
  3
ACAD_LAYERSTATES
360
184
  3
ACLYDICTIONARY
360
3F9
  0
DICTIONARY
  5
122
102
{ACAD_REACTORS
330
C
102
}
330
C
100
AcDbDictionary
  0
DICTIONARY
  5
D
102
{ACAD_REACTORS
330
C
102
}
330
C
100
AcDbDictionary
  0
RASTERVARIABLES
  5
DC
102
{ACAD_REACTORS
330
C
102
}
330
C
100
AcDbRasterVariables
 90
        0
 70
     1
 71
     1
 72
     5
  0
DICTIONARY
  5
17
102
{ACAD_REACTORS
330
C
102
}
330
C
100
AcDbDictionary
  3
STANDARD
350
18
  0
DICTIONARY
  5
64D
102
{ACAD_REACTORS
330
C
102
}
330
C
100
AcDbDictionary
  0
DICTIONARY
  5
123
102
{ACAD_REACTORS
330
C
102
}
330
C
100
AcDbDictionary
  0
DICTIONARY
  5
66
102
{ACAD_REACTORS
330
C
102
}
330
C
100
AcDbDictionary
  3
DIMASSOC
350
67
  3
HIDETEXT
350
6B
  0
DICTIONARY
  5
E1
102
{ACAD_REACTORS
330
C
102
}
330
C
100
AcDbDictionary
  0
XRECORD
  5
6A7
102
{ACAD_REACTORS
330
C
102
}
330
C
100
AcDbXrecord
  1
DWGPROPS COOKIE
  2

  3

  4

  6

  7

  8
grey
  9

300
=
301
=
302
=
303
=
304
=
305
=
306
=
307
=
308
=
309
=
 40
0.0
 41
2452643.063384271
 42
2458909.345542489
  1

 90
        0
  0
DICTIONARY
  5
184
102
{ACAD_REACTORS
330
183
102
}
330
183
100
AcDbDictionary
  0
DICTIONARY
  5
3F9
102
{ACAD_REACTORS
330
183
102
}
330
183
100
AcDbDictionary
1001
ACAD
1000
<All
  0
MLINESTYLE
  5
18
102
{ACAD_REACTORS
330
17
102
}
330
17
100
AcDbMlineStyle
  2
STANDARD
 70
     0
  3

 62
   256
 51
90.0
 52
90.0
 71
     2
 49
0.5
 62
   256
  6
BYLAYER
 49
-0.5
 62
   256
  6
BYLAYER
  0
DICTIONARYVAR
  5
67
102
{ACAD_REACTORS
330
66
102
}
330
66
100
DictionaryVariables
280
     0
  1
2
  0
DICTIONARYVAR
  5
6B
102
{ACAD_REACTORS
330
66
102
}
330
66
100
DictionaryVariables
280
     0
  1
1
  0
ENDSEC
  0
EOF
