  0
SECTION
  2
HEADER
  9
$ACADVER
  1
AC1014
  9
$ACADMAINTVER
 70
     9
  9
$DWGCODEPAGE
  3
ANSI_1252
  9
$INSBASE
 10
0.0
 20
0.0
 30
0.0
  9
$EXTMIN
 10
-43.22366991670233
 20
-84.0
 30
0.0
  9
$EXTMAX
 10
180.0
 20
227.9999999999999
 30
0.0
  9
$LIMMIN
 10
0.0
 20
0.0
  9
$LIMMAX
 10
12.0
 20
9.0
  9
$ORTHOMODE
 70
     0
  9
$REGENMODE
 70
     1
  9
$FILLMODE
 70
     1
  9
$QTEXTMODE
 70
     0
  9
$MIRRTEXT
 70
     0
  9
$DRAGMODE
 70
     2
  9
$LTSCALE
 40
1.0
  9
$OSMODE
 70
   511
  9
$ATTMODE
 70
     1
  9
$TEXTSIZE
 40
0.2
  9
$TRACEWID
 40
0.05
  9
$TEXTSTYLE
  7
STANDARD
  9
$CLAYER
  8
SECTIONS
  9
$CELTYPE
  6
BYLAYER
  9
$CECOLOR
 62
   256
  9
$CELTSCALE
 40
1.0
  9
$DELOBJ
 70
     1
  9
$DISPSILH
 70
     0
  9
$DIMSCALE
 40
1.0
  9
$DIMASZ
 40
0.18
  9
$DIMEXO
 40
0.0625
  9
$DIMDLI
 40
0.38
  9
$DIMRND
 40
0.0
  9
$DIMDLE
 40
0.0
  9
$DIMEXE
 40
0.18
  9
$DIMTP
 40
0.0
  9
$DIMTM
 40
0.0
  9
$DIMTXT
 40
0.18
  9
$DIMCEN
 40
-0.09
  9
$DIMTSZ
 40
0.0
  9
$DIMTOL
 70
     0
  9
$DIMLIM
 70
     0
  9
$DIMTIH
 70
     1
  9
$DIMTOH
 70
     1
  9
$DIMSE1
 70
     0
  9
$DIMSE2
 70
     0
  9
$DIMTAD
 70
     0
  9
$DIMZIN
 70
     0
  9
$DIMBLK
  1

  9
$DIMASO
 70
     1
  9
$DIMSHO
 70
     1
  9
$DIMPOST
  1

  9
$DIMAPOST
  1

  9
$DIMALT
 70
     0
  9
$DIMALTD
 70
     2
  9
$DIMALTF
 40
25.4
  9
$DIMLFAC
 40
1.0
  9
$DIMTOFL
 70
     0
  9
$DIMTVP
 40
0.0
  9
$DIMTIX
 70
     0
  9
$DIMSOXD
 70
     0
  9
$DIMSAH
 70
     0
  9
$DIMBLK1
  1

  9
$DIMBLK2
  1

  9
$DIMSTYLE
  2
STANDARD
  9
$DIMCLRD
 70
     0
  9
$DIMCLRE
 70
     0
  9
$DIMCLRT
 70
     0
  9
$DIMTFAC
 40
1.0
  9
$DIMGAP
 40
0.09
  9
$DIMJUST
 70
     0
  9
$DIMSD1
 70
     0
  9
$DIMSD2
 70
     0
  9
$DIMTOLJ
 70
     1
  9
$DIMTZIN
 70
     0
  9
$DIMALTZ
 70
     0
  9
$DIMALTTZ
 70
     0
  9
$DIMFIT
 70
     3
  9
$DIMUPT
 70
     0
  9
$DIMUNIT
 70
     2
  9
$DIMDEC
 70
     4
  9
$DIMTDEC
 70
     4
  9
$DIMALTU
 70
     2
  9
$DIMALTTD
 70
     2
  9
$DIMTXSTY
  7
STANDARD
  9
$DIMAUNIT
 70
     0
  9
$LUNITS
 70
     2
  9
$LUPREC
 70
     4
  9
$SKETCHINC
 40
0.1
  9
$FILLETRAD
 40
3.0
  9
$AUNITS
 70
     0
  9
$AUPREC
 70
     0
  9
$MENU
  1
.
  9
$ELEVATION
 40
0.0
  9
$PELEVATION
 40
0.0
  9
$THICKNESS
 40
0.0
  9
$LIMCHECK
 70
     0
  9
$CHAMFERA
 40
0.0
  9
$CHAMFERB
 40
0.0
  9
$CHAMFERC
 40
0.0
  9
$CHAMFERD
 40
0.0
  9
$SKPOLY
 70
     0
  9
$TDCREATE
 40
2452642.771717604
  9
$TDUPDATE
 40
2458910.602745336
  9
$TDINDWG
 40
0.0000000231
  9
$TDUSRTIMER
 40
0.8814039468
  9
$USRTIMER
 70
     1
  9
$ANGBASE
 50
0.0
  9
$ANGDIR
 70
     0
  9
$PDMODE
 70
     0
  9
$PDSIZE
 40
0.0
  9
$PLINEWID
 40
0.0
  9
$COORDS
 70
     1
  9
$SPLFRAME
 70
     0
  9
$SPLINETYPE
 70
     6
  9
$SPLINESEGS
 70
     8
  9
$ATTDIA
 70
     0
  9
$ATTREQ
 70
     1
  9
$HANDLING
 70
     1
  9
$HANDSEED
  5
AB9
  9
$SURFTAB1
 70
     6
  9
$SURFTAB2
 70
     6
  9
$SURFTYPE
 70
     6
  9
$SURFU
 70
     6
  9
$SURFV
 70
     6
  9
$UCSNAME
  2

  9
$UCSORG
 10
0.0
 20
0.0
 30
0.0
  9
$UCSXDIR
 10
1.0
 20
0.0
 30
0.0
  9
$UCSYDIR
 10
0.0
 20
1.0
 30
0.0
  9
$PUCSNAME
  2

  9
$PUCSORG
 10
0.0
 20
0.0
 30
0.0
  9
$PUCSXDIR
 10
1.0
 20
0.0
 30
0.0
  9
$PUCSYDIR
 10
0.0
 20
1.0
 30
0.0
  9
$USERI1
 70
     0
  9
$USERI2
 70
     0
  9
$USERI3
 70
     0
  9
$USERI4
 70
     0
  9
$USERI5
 70
     0
  9
$USERR1
 40
0.0
  9
$USERR2
 40
0.0
  9
$USERR3
 40
0.0
  9
$USERR4
 40
0.0
  9
$USERR5
 40
0.0
  9
$WORLDVIEW
 70
     1
  9
$SHADEDGE
 70
     3
  9
$SHADEDIF
 70
    70
  9
$TILEMODE
 70
     1
  9
$MAXACTVP
 70
    64
  9
$PINSBASE
 10
0.0
 20
0.0
 30
0.0
  9
$PLIMCHECK
 70
     0
  9
$PEXTMIN
 10
0.0
 20
0.0
 30
0.0
  9
$PEXTMAX
 10
0.0
 20
0.0
 30
0.0
  9
$PLIMMIN
 10
0.0
 20
0.0
  9
$PLIMMAX
 10
0.0
 20
0.0
  9
$UNITMODE
 70
     0
  9
$VISRETAIN
 70
     1
  9
$PLINEGEN
 70
     0
  9
$PSLTSCALE
 70
     1
  9
$TREEDEPTH
 70
  3020
  9
$PICKSTYLE
 70
     1
  9
$CMLSTYLE
  2
STANDARD
  9
$CMLJUST
 70
     0
  9
$CMLSCALE
 40
1.0
  9
$PROXYGRAPHICS
 70
     1
  9
$MEASUREMENT
 70
     0
  0
ENDSEC
  0
SECTION
  2
CLASSES
  0
CLASS
  1
ACDBDICTIONARYWDFLT
  2
AcDbDictionaryWithDefault
  3
ObjectDBX Classes
 90
        0
280
     0
281
     0
  0
CLASS
  1
ACDBPLACEHOLDER
  2
AcDbPlaceHolder
  3
ObjectDBX Classes
 90
        0
280
     0
281
     0
  0
CLASS
  1
LAYOUT
  2
AcDbLayout
  3
ObjectDBX Classes
 90
        0
280
     0
281
     0
  0
CLASS
  1
DICTIONARYVAR
  2
AcDbDictionaryVar
  3
ObjectDBX Classes
 90
        0
280
     0
281
     0
  0
CLASS
  1
TABLESTYLE
  2
AcDbTableStyle
  3
ObjectDBX Classes
 90
     4095
280
     0
281
     0
  0
CLASS
  1
MATERIAL
  2
AcDbMaterial
  3
ObjectDBX Classes
 90
     1153
280
     0
281
     0
  0
CLASS
  1
VISUALSTYLE
  2
AcDbVisualStyle
  3
ObjectDBX Classes
 90
     4095
280
     0
281
     0
  0
CLASS
  1
SCALE
  2
AcDbScale
  3
ObjectDBX Classes
 90
     1153
280
     0
281
     0
  0
CLASS
  1
CELLSTYLEMAP
  2
AcDbCellStyleMap
  3
ObjectDBX Classes
 90
     1152
280
     0
281
     0
  0
CLASS
  1
RASTERVARIABLES
  2
AcDbRasterVariables
  3
ISM
 90
        0
280
     0
281
     0
  0
CLASS
  1
SUN
  2
AcDbSun
  3
SCENEOE
 90
     1153
280
     0
281
     0
  0
CLASS
  1
MLEADERSTYLE
  2
AcDbMLeaderStyle
  3
ACDB_MLEADERSTYLE_CLASS
 90
     4095
280
     0
281
     0
  0
CLASS
  1
XRECORD
  2
AcDbXrecord
  3
ObjectDBX Classes
 90
        0
280
     0
281
     0
  0
CLASS
  1
LWPOLYLINE
  2
AcDbPolyline
  3
ObjectDBX Classes
 90
        0
280
     0
281
     1
  0
CLASS
  1
HATCH
  2
AcDbHatch
  3
ObjectDBX Classes
 90
        0
280
     0
281
     1
  0
CLASS
  1
DIMASSOC
  2
AcDbDimAssoc
  3
"AcDbDimAssoc|Product Desc:     AcDim ARX App For Dimension|Company:          Autodesk, Inc.|WEB Address:      www.autodesk.com"
 90
        0
280
     0
281
     0
  0
ENDSEC
  0
SECTION
  2
TABLES
  0
TABLE
  2
VPORT
  5
8
330
0
100
AcDbSymbolTable
 70
     1
  0
VPORT
  5
94
330
8
100
AcDbSymbolTableRecord
100
AcDbViewportTableRecord
  2
*ACTIVE
 70
     0
 10
0.0
 20
0.0
 11
1.0
 21
1.0
 12
203.8700822599131
 22
111.9557255706304
 13
0.0
 23
0.0
 14
0.5
 24
0.5
 15
0.5
 25
0.5
 16
0.0
 26
0.0
 36
1.0
 17
-27.6695935659798
 27
-19.53870295786186
 37
0.0
 40
466.6410235642832
 41
2.812267657992565
 42
50.0
 43
0.0
 44
0.0
 50
0.0
 51
0.0
 71
    16
 72
  1000
 73
     1
 74
     3
 75
     0
 76
     0
 77
     0
 78
     0
  0
ENDTAB
  0
TABLE
  2
LTYPE
  5
5
330
0
100
AcDbSymbolTable
 70
     1
  0
LTYPE
  5
14
330
5
100
AcDbSymbolTableRecord
100
AcDbLinetypeTableRecord
  2
BYBLOCK
 70
     0
  3

 72
    65
 73
     0
 40
0.0
  0
LTYPE
  5
15
330
5
100
AcDbSymbolTableRecord
100
AcDbLinetypeTableRecord
  2
BYLAYER
 70
     0
  3

 72
    65
 73
     0
 40
0.0
  0
LTYPE
  5
16
330
5
100
AcDbSymbolTableRecord
100
AcDbLinetypeTableRecord
  2
CONTINUOUS
 70
     0
  3
Solid line
 72
    65
 73
     0
 40
0.0
  0
ENDTAB
  0
TABLE
  2
LAYER
  5
2
102
{ACAD_XDICTIONARY
360
1AA
102
}
330
0
100
AcDbSymbolTable
 70
    18
  0
LAYER
  5
10
330
2
100
AcDbSymbolTableRecord
100
AcDbLayerTableRecord
  2
0
 70
     0
 62
    -7
  6
CONTINUOUS
  0
LAYER
  5
1AD
330
2
100
AcDbSymbolTableRecord
100
AcDbLayerTableRecord
  2
LIGHTBOARD
 70
     0
 62
    -1
  6
CONTINUOUS
1001
ACAECLAYERSTANDARD
1000

1000

  0
LAYER
  5
1B4
330
2
100
AcDbSymbolTableRecord
100
AcDbLayerTableRecord
  2
SECTIONS
 70
     0
 62
    -7
  6
CONTINUOUS
1001
ACAECLAYERSTANDARD
1000

1000

  0
LAYER
  5
1B7
330
2
100
AcDbSymbolTableRecord
100
AcDbLayerTableRecord
  2
PELTIER
 70
     0
 62
    -7
  6
CONTINUOUS
1001
ACAECLAYERSTANDARD
1000

1000

  0
LAYER
  5
1CD
330
2
100
AcDbSymbolTableRecord
100
AcDbLayerTableRecord
  2
HEATSINK
 70
     0
 62
    -3
  6
CONTINUOUS
1001
ACAECLAYERSTANDARD
1000

1000

  0
LAYER
  5
207
330
2
100
AcDbSymbolTableRecord
100
AcDbLayerTableRecord
  2
LED
 70
     0
 62
    -4
  6
CONTINUOUS
1001
ACAECLAYERSTANDARD
1000

1000

  0
LAYER
  5
327
330
2
100
AcDbSymbolTableRecord
100
AcDbLayerTableRecord
  2
CONTOLBOARD
 70
     0
 62
    -6
  6
CONTINUOUS
1001
ACAECLAYERSTANDARD
1000

1000

  0
LAYER
  5
32D
330
2
100
AcDbSymbolTableRecord
100
AcDbLayerTableRecord
  2
HEATSINK_HOLES
 70
     0
 62
     2
  6
CONTINUOUS
1001
ACAECLAYERSTANDARD
1000

1000

  0
LAYER
  5
34C
330
2
100
AcDbSymbolTableRecord
100
AcDbLayerTableRecord
  2
DEFPOINTS
 70
     0
 62
    -7
  6
CONTINUOUS
  0
LAYER
  5
401
330
2
100
AcDbSymbolTableRecord
100
AcDbLayerTableRecord
  2
NPN
 70
     0
 62
    -4
  6
CONTINUOUS
1001
ACAECLAYERSTANDARD
1000

1000

  0
LAYER
  5
43C
330
2
100
AcDbSymbolTableRecord
100
AcDbLayerTableRecord
  2
PADS
 70
     0
 62
    -2
  6
CONTINUOUS
1001
ACAECLAYERSTANDARD
1000

1000

  0
LAYER
  5
606
330
2
100
AcDbSymbolTableRecord
100
AcDbLayerTableRecord
  2
UV_PAD
 70
     0
 62
    -5
  6
CONTINUOUS
1001
ACAECLAYERSTANDARD
1000

1000

  0
LAYER
  5
624
330
2
100
AcDbSymbolTableRecord
100
AcDbLayerTableRecord
  2
WHITE_PADS
 70
     0
 62
    -7
  6
CONTINUOUS
1001
ACAECLAYERSTANDARD
1000

1000

  0
LAYER
  5
62B
330
2
100
AcDbSymbolTableRecord
100
AcDbLayerTableRecord
  2
850_PADS
 70
     0
 62
    -1
  6
CONTINUOUS
1001
ACAECLAYERSTANDARD
1000

1000

  0
LAYER
  5
659
330
2
100
AcDbSymbolTableRecord
100
AcDbLayerTableRecord
  2
950_PADS
 70
     0
 62
    -1
  6
CONTINUOUS
1001
ACAECLAYERSTANDARD
1000

1000

  0
LAYER
  5
7F6
330
2
100
AcDbSymbolTableRecord
100
AcDbLayerTableRecord
  2
WIRE_HOLES
 70
     0
 62
     2
  6
CONTINUOUS
1001
ACAECLAYERSTANDARD
1000

1000

  0
LAYER
  5
8DC
330
2
100
AcDbSymbolTableRecord
100
AcDbLayerTableRecord
  2
COPPER_BASE
 70
     0
 62
     3
  6
CONTINUOUS
1001
ACAECLAYERSTANDARD
1000

1000

  0
LAYER
  5
8F6
330
2
100
AcDbSymbolTableRecord
100
AcDbLayerTableRecord
  2
LEG_HOLES
 70
     0
 62
     2
  6
CONTINUOUS
1001
ACAECLAYERSTANDARD
1000

1000

  0
ENDTAB
  0
TABLE
  2
STYLE
  5
3
330
0
100
AcDbSymbolTable
 70
     2
  0
STYLE
  5
11
330
3
100
AcDbSymbolTableRecord
100
AcDbTextStyleTableRecord
  2
STANDARD
 70
     0
 40
0.0
 41
1.0
 50
0.0
 71
     0
 42
0.2
  3
arial.ttf
  4

1001
ACAD
1000
Arial
1071
        0
  0
STYLE
  5
125
330
3
100
AcDbSymbolTableRecord
100
AcDbTextStyleTableRecord
  2
ANNOTATIVE
 70
     0
 40
0.0
 41
1.0
 50
0.0
 71
     0
 42
0.2
  3
arial.ttf
  4

1001
ACAD
1000
Arial
1071
        0
1001
ACADANNOTATIVE
1000
AnnotativeData
1002
{
1070
     1
1070
     1
1002
}
  0
ENDTAB
  0
TABLE
  2
VIEW
  5
6
330
0
100
AcDbSymbolTable
 70
     0
  0
ENDTAB
  0
TABLE
  2
UCS
  5
7
330
0
100
AcDbSymbolTable
 70
     0
  0
ENDTAB
  0
TABLE
  2
APPID
  5
9
330
0
100
AcDbSymbolTable
 70
     3
  0
APPID
  5
12
330
9
100
AcDbSymbolTableRecord
100
AcDbRegAppTableRecord
  2
ACAD
 70
     0
  0
APPID
  5
126
330
9
100
AcDbSymbolTableRecord
100
AcDbRegAppTableRecord
  2
ACADANNOTATIVE
 70
     0
  0
APPID
  5
1AE
330
9
100
AcDbSymbolTableRecord
100
AcDbRegAppTableRecord
  2
ACAECLAYERSTANDARD
 70
     0
  0
ENDTAB
  0
TABLE
  2
DIMSTYLE
  5
A
330
0
100
AcDbSymbolTable
 70
     2
  0
DIMSTYLE
105
27
330
A
100
AcDbSymbolTableRecord
100
AcDbDimStyleTableRecord
  2
STANDARD
 70
     0
  3

  4

  5

  6

  7

 40
1.0
 41
0.18
 42
0.0625
 43
0.38
 44
0.18
 45
0.0
 46
0.0
 47
0.0
 48
0.0
140
0.18
141
-0.09
142
0.0
143
25.4
144
1.0
145
0.0
146
1.0
147
0.09
 71
     0
 72
     0
 73
     1
 74
     1
 75
     0
 76
     0
 77
     0
 78
     0
170
     0
171
     2
172
     0
173
     0
174
     0
175
     0
176
     0
177
     0
178
     0
270
     2
271
     4
272
     4
273
     2
274
     2
340
11
275
     0
280
     0
281
     0
282
     0
283
     1
284
     0
285
     0
286
     0
287
     3
288
     0
  0
DIMSTYLE
105
127
330
A
100
AcDbSymbolTableRecord
100
AcDbDimStyleTableRecord
  2
ANNOTATIVE
 70
     0
  3

  4

  5

  6

  7

 40
0.0
 41
0.18
 42
0.0625
 43
0.38
 44
0.18
 45
0.0
 46
0.0
 47
0.0
 48
0.0
140
0.18
141
-0.09
142
0.0
143
25.4
144
1.0
145
0.0
146
1.0
147
0.09
 71
     0
 72
     0
 73
     1
 74
     1
 75
     0
 76
     0
 77
     0
 78
     0
170
     0
171
     2
172
     0
173
     0
174
     0
175
     0
176
     0
177
     0
178
     0
270
     2
271
     4
272
     4
273
     2
274
     2
340
11
275
     0
280
     0
281
     0
282
     0
283
     1
284
     0
285
     0
286
     0
287
     3
288
     0
1001
ACADANNOTATIVE
1000
AnnotativeData
1002
{
1070
     1
1070
     1
1002
}
  0
ENDTAB
  0
TABLE
  2
BLOCK_RECORD
  5
1
330
0
100
AcDbSymbolTable
 70
     1
  0
BLOCK_RECORD
  5
1F
330
1
100
AcDbSymbolTableRecord
100
AcDbBlockTableRecord
  2
*MODEL_SPACE
  0
BLOCK_RECORD
  5
58
330
1
100
AcDbSymbolTableRecord
100
AcDbBlockTableRecord
  2
*PAPER_SPACE
  0
BLOCK_RECORD
  5
5D
330
1
100
AcDbSymbolTableRecord
100
AcDbBlockTableRecord
  2
*PAPER_SPACE0
  0
ENDTAB
  0
ENDSEC
  0
SECTION
  2
BLOCKS
  0
BLOCK
  5
20
330
1F
100
AcDbEntity
  8
0
100
AcDbBlockBegin
  2
*MODEL_SPACE
 70
     0
 10
0.0
 20
0.0
 30
0.0
  3
*MODEL_SPACE
  1

  0
ENDBLK
  5
21
330
1F
100
AcDbEntity
  8
0
100
AcDbBlockEnd
  0
BLOCK
  5
5A
330
58
100
AcDbEntity
 67
     1
  8
0
100
AcDbBlockBegin
  2
*PAPER_SPACE
 70
     0
 10
0.0
 20
0.0
 30
0.0
  3
*PAPER_SPACE
  1

  0
ENDBLK
  5
5B
330
58
100
AcDbEntity
 67
     1
  8
0
100
AcDbBlockEnd
  0
BLOCK
  5
5F
330
5D
100
AcDbEntity
  8
0
100
AcDbBlockBegin
  2
*PAPER_SPACE0
 70
     0
 10
0.0
 20
0.0
 30
0.0
  3
*PAPER_SPACE0
  1

  0
ENDBLK
  5
60
330
5D
100
AcDbEntity
  8
0
100
AcDbBlockEnd
  0
ENDSEC
  0
SECTION
  2
ENTITIES
  0
LWPOLYLINE
  5
12A
330
1F
100
AcDbEntity
  8
LIGHTBOARD
100
AcDbPolyline
 90
        8
 70
     1
 43
0.0
 10
-36.0
 20
-33.99999999999999
 10
-36.0
 20
34.0
 42
-0.414213562373095
 10
-34.0
 20
36.0
 10
34.00000000000001
 20
36.0
 42
-0.414213562373095
 10
36.00000000000001
 20
34.0
 10
36.00000000000001
 20
-33.99999999999999
 42
-0.414213562373095
 10
34.00000000000001
 20
-35.99999999999999
 10
-34.0
 20
-35.99999999999999
 42
-0.414213562373095
  0
LWPOLYLINE
  5
139
330
1F
100
AcDbEntity
  8
SECTIONS
100
AcDbPolyline
 90
        4
 70
     1
 43
0.0
 10
-36.0
 20
-35.99999999999999
 10
-36.0
 20
-11.99999999999999
 10
-12.0
 20
-11.99999999999999
 10
-12.0
 20
-35.99999999999999
  0
LWPOLYLINE
  5
147
330
1F
100
AcDbEntity
  8
SECTIONS
100
AcDbPolyline
 90
        4
 70
     1
 43
0.0
 10
-12.0
 20
-35.99999999999999
 10
-12.0
 20
-11.99999999999999
 10
12.0
 20
-11.99999999999999
 10
12.0
 20
-35.99999999999999
  0
LWPOLYLINE
  5
155
330
1F
100
AcDbEntity
  8
SECTIONS
100
AcDbPolyline
 90
        4
 70
     1
 43
0.0
 10
12.0
 20
-35.99999999999999
 10
12.0
 20
-11.99999999999999
 10
36.0
 20
-11.99999999999999
 10
36.0
 20
-35.99999999999999
  0
LWPOLYLINE
  5
163
330
1F
100
AcDbEntity
  8
SECTIONS
100
AcDbPolyline
 90
        4
 70
     1
 43
0.0
 10
-36.0
 20
-11.99999999999999
 10
-36.0
 20
12.0
 10
-12.0
 20
12.0
 10
-12.0
 20
-11.99999999999999
  0
LWPOLYLINE
  5
171
330
1F
100
AcDbEntity
  8
SECTIONS
100
AcDbPolyline
 90
        4
 70
     1
 43
0.0
 10
-12.0
 20
-11.99999999999999
 10
-12.0
 20
12.0
 10
12.0
 20
12.0
 10
12.0
 20
-11.99999999999999
  0
LWPOLYLINE
  5
17F
330
1F
100
AcDbEntity
  8
SECTIONS
100
AcDbPolyline
 90
        4
 70
     1
 43
0.0
 10
12.0
 20
-11.99999999999999
 10
12.0
 20
12.0
 10
36.0
 20
12.0
 10
36.0
 20
-11.99999999999999
  0
LWPOLYLINE
  5
18D
330
1F
100
AcDbEntity
  8
SECTIONS
100
AcDbPolyline
 90
        4
 70
     1
 43
0.0
 10
-36.0
 20
12.0
 10
-36.0
 20
35.99999999999999
 10
-12.0
 20
35.99999999999999
 10
-12.0
 20
12.0
  0
LWPOLYLINE
  5
19B
330
1F
100
AcDbEntity
  8
SECTIONS
100
AcDbPolyline
 90
        4
 70
     1
 43
0.0
 10
-12.0
 20
12.0
 10
-12.0
 20
35.99999999999999
 10
12.0
 20
35.99999999999999
 10
12.0
 20
12.0
  0
LWPOLYLINE
  5
1B9
330
1F
100
AcDbEntity
  8
PELTIER
100
AcDbPolyline
 90
        4
 70
     1
 43
0.0
 10
-20.0
 20
-20.0
 10
-20.0
 20
20.0
 10
20.00000000000001
 20
20.0
 10
20.00000000000001
 20
-20.0
  0
LWPOLYLINE
  5
1CB
330
1F
100
AcDbEntity
  8
SECTIONS
100
AcDbPolyline
 90
        4
 70
     1
 43
0.0
 10
12.0
 20
12.0
 10
12.0
 20
35.99999999999999
 10
36.0
 20
35.99999999999999
 10
36.0
 20
12.0
  0
LWPOLYLINE
  5
1D1
330
1F
100
AcDbEntity
  8
HEATSINK
100
AcDbPolyline
 90
        4
 70
     1
 43
0.0
 10
-35.00000000000001
 20
-34.99999999999999
 10
-35.00000000000001
 20
34.99999999999999
 10
35.0
 20
34.99999999999999
 10
35.0
 20
-34.99999999999999
  0
CIRCLE
  5
1D5
330
1F
100
AcDbEntity
  8
HEATSINK_HOLES
100
AcDbCircle
 10
-31.50000000000001
 20
31.49999999999999
 30
0.0
 40
1.5
  0
CIRCLE
  5
1E5
330
1F
100
AcDbEntity
  8
HEATSINK_HOLES
100
AcDbCircle
 10
31.50000000000001
 20
31.49999999999999
 30
0.0
 40
1.5
  0
CIRCLE
  5
1F5
330
1F
100
AcDbEntity
  8
HEATSINK_HOLES
100
AcDbCircle
 10
31.5
 20
-31.49999999999999
 30
0.0
 40
1.5
  0
CIRCLE
  5
205
330
1F
100
AcDbEntity
  8
HEATSINK_HOLES
100
AcDbCircle
 10
-31.50000000000001
 20
-31.49999999999999
 30
0.0
 40
1.5
  0
LWPOLYLINE
  5
26A
330
1F
100
AcDbEntity
  8
LED
100
AcDbPolyline
 90
        4
 70
     1
 43
0.0
 10
-28.0
 20
-27.99999999999999
 10
-28.0
 20
-24.99999999999999
 10
-25.0
 20
-24.99999999999999
 10
-25.0
 20
-27.99999999999999
  0
LWPOLYLINE
  5
26B
330
1F
100
AcDbEntity
  8
LED
100
AcDbPolyline
 90
        4
 70
     1
 43
0.0
 10
-23.0
 20
-27.99999999999999
 10
-23.0
 20
-24.99999999999999
 10
-20.0
 20
-24.99999999999999
 10
-20.0
 20
-27.99999999999999
  0
LWPOLYLINE
  5
26C
330
1F
100
AcDbEntity
  8
LED
100
AcDbPolyline
 90
        4
 70
     1
 43
0.0
 10
-28.0
 20
-22.99999999999999
 10
-28.0
 20
-19.99999999999999
 10
-25.0
 20
-19.99999999999999
 10
-25.0
 20
-22.99999999999999
  0
LWPOLYLINE
  5
26D
330
1F
100
AcDbEntity
  8
LED
100
AcDbPolyline
 90
        4
 70
     1
 43
0.0
 10
-23.0
 20
-22.99999999999999
 10
-23.0
 20
-19.99999999999999
 10
-20.0
 20
-19.99999999999999
 10
-20.0
 20
-22.99999999999999
  0
LWPOLYLINE
  5
281
330
1F
100
AcDbEntity
  8
LED
100
AcDbPolyline
 90
        4
 70
     1
 43
0.0
 10
-28.0
 20
-4.0
 10
-28.0
 20
-1.0
 10
-25.0
 20
-1.0
 10
-25.0
 20
-4.0
  0
LWPOLYLINE
  5
282
330
1F
100
AcDbEntity
  8
LED
100
AcDbPolyline
 90
        4
 70
     1
 43
0.0
 10
-23.0
 20
-4.0
 10
-23.0
 20
-1.0
 10
-20.0
 20
-1.0
 10
-20.0
 20
-4.0
  0
LWPOLYLINE
  5
283
330
1F
100
AcDbEntity
  8
LED
100
AcDbPolyline
 90
        4
 70
     1
 43
0.0
 10
-28.0
 20
1.0
 10
-28.0
 20
4.0
 10
-25.0
 20
4.0
 10
-25.0
 20
1.0
  0
LWPOLYLINE
  5
284
330
1F
100
AcDbEntity
  8
LED
100
AcDbPolyline
 90
        4
 70
     1
 43
0.0
 10
-23.0
 20
1.0
 10
-23.0
 20
4.0
 10
-20.0
 20
4.0
 10
-20.0
 20
1.0
  0
LWPOLYLINE
  5
298
330
1F
100
AcDbEntity
  8
LED
100
AcDbPolyline
 90
        4
 70
     1
 43
0.0
 10
-28.0
 20
19.99999999999999
 10
-28.0
 20
22.99999999999999
 10
-25.0
 20
22.99999999999999
 10
-25.0
 20
19.99999999999999
  0
LWPOLYLINE
  5
299
330
1F
100
AcDbEntity
  8
LED
100
AcDbPolyline
 90
        4
 70
     1
 43
0.0
 10
-23.0
 20
19.99999999999999
 10
-23.0
 20
22.99999999999999
 10
-20.0
 20
22.99999999999999
 10
-20.0
 20
19.99999999999999
  0
LWPOLYLINE
  5
29A
330
1F
100
AcDbEntity
  8
LED
100
AcDbPolyline
 90
        4
 70
     1
 43
0.0
 10
-28.0
 20
24.99999999999999
 10
-28.0
 20
27.99999999999999
 10
-25.0
 20
27.99999999999999
 10
-25.0
 20
24.99999999999999
  0
LWPOLYLINE
  5
29B
330
1F
100
AcDbEntity
  8
LED
100
AcDbPolyline
 90
        4
 70
     1
 43
0.0
 10
-23.0
 20
24.99999999999999
 10
-23.0
 20
27.99999999999999
 10
-20.0
 20
27.99999999999999
 10
-20.0
 20
24.99999999999999
  0
LWPOLYLINE
  5
2AF
330
1F
100
AcDbEntity
  8
LED
100
AcDbPolyline
 90
        4
 70
     1
 43
0.0
 10
-4.0
 20
19.99999999999999
 10
-4.0
 20
22.99999999999999
 10
-1.0
 20
22.99999999999999
 10
-1.0
 20
19.99999999999999
  0
LWPOLYLINE
  5
2B0
330
1F
100
AcDbEntity
  8
LED
100
AcDbPolyline
 90
        4
 70
     1
 43
0.0
 10
1.0
 20
19.99999999999999
 10
1.0
 20
22.99999999999999
 10
4.0
 20
22.99999999999999
 10
4.0
 20
19.99999999999999
  0
LWPOLYLINE
  5
2B1
330
1F
100
AcDbEntity
  8
LED
100
AcDbPolyline
 90
        4
 70
     1
 43
0.0
 10
-4.0
 20
24.99999999999999
 10
-4.0
 20
27.99999999999999
 10
-1.0
 20
27.99999999999999
 10
-1.0
 20
24.99999999999999
  0
LWPOLYLINE
  5
2B2
330
1F
100
AcDbEntity
  8
LED
100
AcDbPolyline
 90
        4
 70
     1
 43
0.0
 10
1.0
 20
24.99999999999999
 10
1.0
 20
27.99999999999999
 10
4.0
 20
27.99999999999999
 10
4.0
 20
24.99999999999999
  0
LWPOLYLINE
  5
2C6
330
1F
100
AcDbEntity
  8
LED
100
AcDbPolyline
 90
        4
 70
     1
 43
0.0
 10
20.0
 20
19.99999999999999
 10
20.0
 20
22.99999999999999
 10
23.0
 20
22.99999999999999
 10
23.0
 20
19.99999999999999
  0
LWPOLYLINE
  5
2C7
330
1F
100
AcDbEntity
  8
LED
100
AcDbPolyline
 90
        4
 70
     1
 43
0.0
 10
25.0
 20
19.99999999999999
 10
25.0
 20
22.99999999999999
 10
28.0
 20
22.99999999999999
 10
28.0
 20
19.99999999999999
  0
LWPOLYLINE
  5
2C8
330
1F
100
AcDbEntity
  8
LED
100
AcDbPolyline
 90
        4
 70
     1
 43
0.0
 10
20.0
 20
24.99999999999999
 10
20.0
 20
27.99999999999999
 10
23.0
 20
27.99999999999999
 10
23.0
 20
24.99999999999999
  0
LWPOLYLINE
  5
2C9
330
1F
100
AcDbEntity
  8
LED
100
AcDbPolyline
 90
        4
 70
     1
 43
0.0
 10
25.0
 20
24.99999999999999
 10
25.0
 20
27.99999999999999
 10
28.0
 20
27.99999999999999
 10
28.0
 20
24.99999999999999
  0
LWPOLYLINE
  5
2DD
330
1F
100
AcDbEntity
  8
LED
100
AcDbPolyline
 90
        4
 70
     1
 43
0.0
 10
20.0
 20
-27.99999999999999
 10
20.0
 20
-24.99999999999999
 10
23.0
 20
-24.99999999999999
 10
23.0
 20
-27.99999999999999
  0
LWPOLYLINE
  5
2DE
330
1F
100
AcDbEntity
  8
LED
100
AcDbPolyline
 90
        4
 70
     1
 43
0.0
 10
25.0
 20
-27.99999999999999
 10
25.0
 20
-24.99999999999999
 10
28.0
 20
-24.99999999999999
 10
28.0
 20
-27.99999999999999
  0
LWPOLYLINE
  5
2DF
330
1F
100
AcDbEntity
  8
LED
100
AcDbPolyline
 90
        4
 70
     1
 43
0.0
 10
20.0
 20
-22.99999999999999
 10
20.0
 20
-19.99999999999999
 10
23.0
 20
-19.99999999999999
 10
23.0
 20
-22.99999999999999
  0
LWPOLYLINE
  5
2E0
330
1F
100
AcDbEntity
  8
LED
100
AcDbPolyline
 90
        4
 70
     1
 43
0.0
 10
25.0
 20
-22.99999999999999
 10
25.0
 20
-19.99999999999999
 10
28.0
 20
-19.99999999999999
 10
28.0
 20
-22.99999999999999
  0
LWPOLYLINE
  5
2F4
330
1F
100
AcDbEntity
  8
LED
100
AcDbPolyline
 90
        4
 70
     1
 43
0.0
 10
-4.0
 20
-27.99999999999999
 10
-4.0
 20
-24.99999999999999
 10
-1.0
 20
-24.99999999999999
 10
-1.0
 20
-27.99999999999999
  0
LWPOLYLINE
  5
2F5
330
1F
100
AcDbEntity
  8
LED
100
AcDbPolyline
 90
        4
 70
     1
 43
0.0
 10
1.0
 20
-27.99999999999999
 10
1.0
 20
-24.99999999999999
 10
4.0
 20
-24.99999999999999
 10
4.0
 20
-27.99999999999999
  0
LWPOLYLINE
  5
2F6
330
1F
100
AcDbEntity
  8
LED
100
AcDbPolyline
 90
        4
 70
     1
 43
0.0
 10
-4.0
 20
-22.99999999999999
 10
-4.0
 20
-19.99999999999999
 10
-1.0
 20
-19.99999999999999
 10
-1.0
 20
-22.99999999999999
  0
LWPOLYLINE
  5
2F7
330
1F
100
AcDbEntity
  8
LED
100
AcDbPolyline
 90
        4
 70
     1
 43
0.0
 10
1.0
 20
-22.99999999999999
 10
1.0
 20
-19.99999999999999
 10
4.0
 20
-19.99999999999999
 10
4.0
 20
-22.99999999999999
  0
LWPOLYLINE
  5
30B
330
1F
100
AcDbEntity
  8
LED
100
AcDbPolyline
 90
        4
 70
     1
 43
0.0
 10
-4.0
 20
-4.0
 10
-4.0
 20
-1.0
 10
-1.0
 20
-1.0
 10
-1.0
 20
-4.0
  0
LWPOLYLINE
  5
30C
330
1F
100
AcDbEntity
  8
LED
100
AcDbPolyline
 90
        4
 70
     1
 43
0.0
 10
1.0
 20
-4.0
 10
1.0
 20
-1.0
 10
4.0
 20
-1.0
 10
4.0
 20
-4.0
  0
LWPOLYLINE
  5
30D
330
1F
100
AcDbEntity
  8
LED
100
AcDbPolyline
 90
        4
 70
     1
 43
0.0
 10
-4.0
 20
1.0
 10
-4.0
 20
4.0
 10
-1.0
 20
4.0
 10
-1.0
 20
1.0
  0
LWPOLYLINE
  5
30E
330
1F
100
AcDbEntity
  8
LED
100
AcDbPolyline
 90
        4
 70
     1
 43
0.0
 10
1.0
 20
1.0
 10
1.0
 20
4.0
 10
4.0
 20
4.0
 10
4.0
 20
1.0
  0
LWPOLYLINE
  5
322
330
1F
100
AcDbEntity
  8
LED
100
AcDbPolyline
 90
        4
 70
     1
 43
0.0
 10
20.0
 20
-4.0
 10
20.0
 20
-1.0
 10
23.0
 20
-1.0
 10
23.0
 20
-4.0
  0
LWPOLYLINE
  5
323
330
1F
100
AcDbEntity
  8
LED
100
AcDbPolyline
 90
        4
 70
     1
 43
0.0
 10
25.0
 20
-4.0
 10
25.0
 20
-1.0
 10
28.0
 20
-1.0
 10
28.0
 20
-4.0
  0
LWPOLYLINE
  5
324
330
1F
100
AcDbEntity
  8
LED
100
AcDbPolyline
 90
        4
 70
     1
 43
0.0
 10
20.0
 20
1.0
 10
20.0
 20
4.0
 10
23.0
 20
4.0
 10
23.0
 20
1.0
  0
LWPOLYLINE
  5
325
330
1F
100
AcDbEntity
  8
LED
100
AcDbPolyline
 90
        4
 70
     1
 43
0.0
 10
25.0
 20
1.0
 10
25.0
 20
4.0
 10
28.0
 20
4.0
 10
28.0
 20
1.0
  0
LWPOLYLINE
  5
32B
330
1F
100
AcDbEntity
  8
CONTOLBOARD
100
AcDbPolyline
 90
        8
 70
     1
 43
0.0
 10
-36.0
 20
-33.99999999999999
 10
-36.0
 20
34.0
 42
-0.414213562373095
 10
-34.0
 20
36.0
 10
34.00000000000003
 20
36.0
 42
-0.414213562373095
 10
36.00000000000003
 20
34.0
 10
36.00000000000003
 20
-33.99999999999999
 42
-0.414213562373095
 10
34.00000000000003
 20
-35.99999999999999
 10
-34.0
 20
-35.99999999999999
 42
-0.414213562373095
  0
CIRCLE
  5
3ED
330
1F
100
AcDbEntity
  8
SECTIONS
100
AcDbCircle
 10
0.0
 20
0.0
 30
0.0
 40
8.722738031459535
  0
LWPOLYLINE
  5
404
330
1F
100
AcDbEntity
  8
NPN
100
AcDbPolyline
 90
        4
 70
     1
 43
0.0
 10
-16.77336257949136
 20
8.81662749059413
 10
-16.77336257949136
 20
15.81662749059413
 10
-5.673362579491354
 20
15.81662749059413
 10
-5.673362579491354
 20
8.81662749059413
  0
LWPOLYLINE
  5
415
330
1F
100
AcDbEntity
  8
NPN
100
AcDbPolyline
 90
        4
 70
     1
 43
0.0
 10
-16.07600347734888
 20
-15.60981767515445
 10
-16.07600347734888
 20
-8.609817675154453
 10
-4.976003477348875
 20
-8.609817675154453
 10
-4.976003477348875
 20
-15.60981767515445
  0
LWPOLYLINE
  5
426
330
1F
100
AcDbEntity
  8
NPN
100
AcDbPolyline
 90
        4
 70
     1
 43
0.0
 10
8.828045142609938
 20
-15.60981767515445
 10
8.828045142609938
 20
-8.609817675154453
 10
19.92804514260994
 20
-8.609817675154453
 10
19.92804514260994
 20
-15.60981767515445
  0
LWPOLYLINE
  5
437
330
1F
100
AcDbEntity
  8
NPN
100
AcDbPolyline
 90
        4
 70
     1
 43
0.0
 10
7.203942224588374
 20
8.891043604962057
 10
7.203942224588374
 20
15.89104360496206
 10
18.30394222458838
 20
15.89104360496206
 10
18.30394222458838
 20
8.891043604962057
  0
CIRCLE
  5
446
330
1F
100
AcDbEntity
  8
PADS
100
AcDbCircle
 10
13.27
 20
-18.35
 30
0.0
 40
0.75
  0
CIRCLE
  5
467
330
1F
100
AcDbEntity
  8
PADS
100
AcDbCircle
 10
10.73
 20
-18.35
 30
0.0
 40
0.75
  0
CIRCLE
  5
47C
330
1F
100
AcDbEntity
  8
PADS
100
AcDbCircle
 10
13.27
 20
28.51
 30
0.0
 40
0.75
  0
CIRCLE
  5
47E
330
1F
100
AcDbEntity
  8
PADS
100
AcDbCircle
 10
15.81
 20
28.51
 30
0.0
 40
0.75
  0
CIRCLE
  5
491
330
1F
100
AcDbEntity
  8
PADS
100
AcDbCircle
 10
-10.73
 20
18.35
 30
0.0
 40
0.75
  0
CIRCLE
  5
492
330
1F
100
AcDbEntity
  8
PADS
100
AcDbCircle
 10
22.16
 20
10.73
 30
0.0
 40
0.75
  0
CIRCLE
  5
493
330
1F
100
AcDbEntity
  8
PADS
100
AcDbCircle
 10
-13.27
 20
18.35
 30
0.0
 40
0.75
  0
CIRCLE
  5
494
330
1F
100
AcDbEntity
  8
PADS
100
AcDbCircle
 10
22.16
 20
13.27
 30
0.0
 40
0.75
  0
CIRCLE
  5
496
330
1F
100
AcDbEntity
  8
PADS
100
AcDbCircle
 10
22.16
 20
-10.73
 30
0.0
 40
0.75
  0
CIRCLE
  5
497
330
1F
100
AcDbEntity
  8
PADS
100
AcDbCircle
 10
22.16
 20
-13.26999999999999
 30
0.0
 40
0.75
  0
CIRCLE
  5
4AA
330
1F
100
AcDbEntity
  8
PADS
100
AcDbCircle
 10
10.73
 20
28.51
 30
0.0
 40
0.75
  0
CIRCLE
  5
4BB
330
1F
100
AcDbEntity
  8
PADS
100
AcDbCircle
 10
8.190000000000001
 20
28.51
 30
0.0
 40
0.75
  0
LWPOLYLINE
  5
4F2
330
1F
100
AcDbEntity
  8
CONTOLBOARD
100
AcDbPolyline
 90
       70
 70
     1
 43
0.0
 10
17.02008098031914
 20
28.51000000000001
 10
17.02008098031914
 20
29.97991901968085
 42
-0.414213562373095
 10
18.02008098031914
 20
30.97991901968085
 10
26.97991901968086
 20
30.97991901968085
 42
-0.414213562373095
 10
30.97991901968086
 20
26.97991901968085
 10
30.97991901968086
 20
18.02008098031912
 42
-0.4142135623730943
 10
29.97991901968086
 20
17.02008098031912
 10
23.16
 20
17.02008098031911
 42
0.4142135623730943
 10
22.16
 20
16.02008098031911
 10
22.16
 20
7.979919019680857
 42
0.414213562373095
 10
23.16
 20
6.979919019680857
 10
29.97991901968086
 20
6.979919019680857
 42
-0.414213562373095
 10
30.97991901968086
 20
5.979919019680857
 10
30.97991901968086
 20
-5.979919019680871
 42
-0.414213562373095
 10
29.97991901968086
 20
-6.979919019680871
 10
23.16
 20
-6.979919019680873
 42
0.414213562373095
 10
22.16
 20
-7.979919019680873
 10
22.16
 20
-16.02008098031913
 42
0.414213562373095
 10
23.16
 20
-17.02008098031913
 10
29.97991901968086
 20
-17.02008098031913
 42
-0.414213562373095
 10
30.97991901968086
 20
-18.02008098031913
 10
30.97991901968086
 20
-26.97991901968086
 42
-0.414213562373095
 10
26.97991901968086
 20
-30.97991901968086
 10
18.02008098031914
 20
-30.97991901968086
 42
-0.414213562373095
 10
17.02008098031914
 20
-29.97991901968086
 10
17.02008098031914
 20
-19.35000000000002
 42
0.414213562373095
 10
16.02008098031914
 20
-18.35000000000002
 10
7.979919019680864
 20
-18.35000000000002
 42
0.414213562373095
 10
6.979919019680864
 20
-19.35000000000002
 10
6.979919019680864
 20
-29.97991901968086
 42
-0.414213562373095
 10
5.979919019680864
 20
-30.97991901968086
 10
-5.979919019680864
 20
-30.97991901968086
 42
-0.414213562373095
 10
-6.979919019680864
 20
-29.97991901968086
 10
-6.979919019680864
 20
-19.35000000000002
 42
0.414213562373095
 10
-7.979919019680864
 20
-18.35000000000002
 10
-16.02008098031914
 20
-18.35000000000002
 42
0.414213562373095
 10
-17.02008098031914
 20
-19.35000000000002
 10
-17.02008098031914
 20
-29.97991901968086
 42
-0.414213562373095
 10
-18.02008098031914
 20
-30.97991901968086
 10
-26.97991901968086
 20
-30.97991901968086
 42
-0.414213562373095
 10
-30.97991901968086
 20
-26.97991901968086
 10
-30.97991901968086
 20
-18.02008098031913
 42
-0.414213562373095
 10
-29.97991901968086
 20
-17.02008098031913
 10
-19.34999999999999
 20
-17.02008098031913
 42
0.414213562373095
 10
-18.34999999999999
 20
-16.02008098031913
 10
-18.34999999999999
 20
-7.979919019680871
 42
0.414213562373095
 10
-19.34999999999999
 20
-6.979919019680871
 10
-29.97991901968086
 20
-6.979919019680871
 42
-0.414213562373095
 10
-30.97991901968086
 20
-5.979919019680871
 10
-30.97991901968086
 20
5.979919019680857
 42
-0.4142135623730953
 10
-29.97991901968086
 20
6.979919019680857
 10
-19.34999999999999
 20
6.979919019680855
 42
0.4142135623730951
 10
-18.34999999999999
 20
7.979919019680855
 10
-18.34999999999999
 20
16.02008098031912
 42
0.414213562373095
 10
-19.34999999999999
 20
17.02008098031912
 10
-29.97991901968086
 20
17.02008098031912
 42
-0.414213562373095
 10
-30.97991901968086
 20
18.02008098031912
 10
-30.97991901968086
 20
26.97991901968085
 42
-0.414213562373095
 10
-26.97991901968086
 20
30.97991901968085
 10
-18.02008098031914
 20
30.97991901968085
 42
-0.414213562373095
 10
-17.02008098031914
 20
29.97991901968085
 10
-17.02008098031914
 20
19.35
 42
0.414213562373095
 10
-16.02008098031914
 20
18.35
 10
-7.979919019680864
 20
18.35
 42
0.414213562373095
 10
-6.979919019680864
 20
19.35
 10
-6.979919019680864
 20
29.97991901968085
 42
-0.414213562373095
 10
-5.979919019680864
 20
30.97991901968085
 10
5.979919019680864
 20
30.97991901968085
 42
-0.414213562373095
 10
6.979919019680864
 20
29.97991901968085
 10
6.979919019680864
 20
28.51000000000001
  0
LWPOLYLINE
  5
60A
330
1F
100
AcDbEntity
  8
UV_PAD
100
AcDbPolyline
 90
        4
 70
     1
 43
0.0
 10
-42.14366991670232
 20
-47.80486024640742
 10
-42.14366991670232
 20
-44.50486024640742
 10
-40.84366991670232
 20
-44.50486024640742
 10
-40.84366991670232
 20
-47.80486024640742
  0
LWPOLYLINE
  5
60C
330
1F
100
AcDbEntity
  8
UV_PAD
100
AcDbPolyline
 90
        4
 70
     1
 43
0.0
 10
-43.14366991670232
 20
-47.80486024640742
 10
-43.14366991670232
 20
-44.50486024640742
 10
-42.64366991670232
 20
-44.50486024640742
 10
-42.64366991670232
 20
-47.80486024640742
  0
LWPOLYLINE
  5
61C
330
1F
100
AcDbEntity
  8
UV_PAD
100
AcDbPolyline
 90
        4
 70
     1
 43
0.0
 10
-40.34366991670232
 20
-47.80486024640742
 10
-40.34366991670232
 20
-44.50486024640742
 10
-39.84366991670232
 20
-44.50486024640742
 10
-39.84366991670232
 20
-47.80486024640742
  0
LWPOLYLINE
  5
620
330
1F
100
AcDbEntity
  8
WHITE_PADS
100
AcDbPolyline
 90
        4
 70
     1
 43
0.0
 10
-42.84366991670232
 20
-44.80486024640742
 10
-42.84366991670232
 20
-47.50486024640742
 10
-42.34366991670232
 20
-47.50486024640742
 10
-42.34366991670232
 20
-44.80486024640742
  0
LWPOLYLINE
  5
621
330
1F
100
AcDbEntity
  8
WHITE_PADS
100
AcDbPolyline
 90
        4
 70
     1
 43
0.0
 10
-40.14366991670232
 20
-44.80486024640742
 10
-40.14366991670232
 20
-47.50486024640742
 10
-40.64366991670232
 20
-47.50486024640742
 10
-40.64366991670232
 20
-44.80486024640742
  0
LWPOLYLINE
  5
622
330
1F
100
AcDbEntity
  8
WHITE_PADS
100
AcDbPolyline
 90
        4
 70
     1
 43
0.0
 10
-41.99366991670232
 20
-47.50486024640742
 10
-41.99366991670232
 20
-44.80486024640742
 10
-40.99366991670232
 20
-44.80486024640742
 10
-40.99366991670232
 20
-47.50486024640742
  0
LWPOLYLINE
  5
640
330
1F
100
AcDbEntity
  8
850_PADS
100
AcDbPolyline
 90
        4
 70
     1
 43
0.0
 10
-42.84366991670232
 20
-44.80486024640742
 10
-42.84366991670232
 20
-47.50486024640742
 10
-42.34366991670232
 20
-47.50486024640742
 10
-42.34366991670232
 20
-44.80486024640742
  0
LWPOLYLINE
  5
641
330
1F
100
AcDbEntity
  8
850_PADS
100
AcDbPolyline
 90
        4
 70
     1
 43
0.0
 10
-40.14366991670232
 20
-44.80486024640742
 10
-40.14366991670232
 20
-47.50486024640742
 10
-40.64366991670232
 20
-47.50486024640742
 10
-40.64366991670232
 20
-44.80486024640742
  0
LWPOLYLINE
  5
642
330
1F
100
AcDbEntity
  8
850_PADS
100
AcDbPolyline
 90
        4
 70
     1
 43
0.0
 10
-41.99366991670232
 20
-47.50486024640742
 10
-41.99366991670232
 20
-44.80486024640742
 10
-40.99366991670232
 20
-44.80486024640742
 10
-40.99366991670232
 20
-47.50486024640742
  0
LWPOLYLINE
  5
657
330
1F
100
AcDbEntity
  8
950_PADS
100
AcDbPolyline
 90
        4
 70
     1
 43
0.0
 10
-41.99366991670232
 20
-47.50486024640742
 10
-41.99366991670232
 20
-44.80486024640742
 10
-40.99366991670232
 20
-44.80486024640742
 10
-40.99366991670232
 20
-47.50486024640742
  0
LWPOLYLINE
  5
660
330
1F
100
AcDbEntity
  8
950_PADS
100
AcDbPolyline
 90
        4
 70
     1
 43
0.0
 10
-40.57366991670232
 20
-47.57986024640742
 10
-40.57366991670232
 20
-44.72986024640742
 10
-39.76366991670232
 20
-44.72986024640742
 10
-39.76366991670232
 20
-47.57986024640742
  0
LWPOLYLINE
  5
670
330
1F
100
AcDbEntity
  8
950_PADS
100
AcDbPolyline
 90
        4
 70
     1
 43
0.0
 10
-43.22366991670233
 20
-47.57986024640742
 10
-43.22366991670233
 20
-44.72986024640742
 10
-42.41366991670233
 20
-44.72986024640742
 10
-42.41366991670233
 20
-47.57986024640742
  0
LWPOLYLINE
  5
6B3
330
1F
100
AcDbEntity
  8
SECTIONS
100
AcDbPolyline
 90
        4
 70
     1
 43
0.0
 10
36.0
 20
-35.99999999999999
 10
36.0
 20
-11.99999999999999
 10
60.0
 20
-11.99999999999999
 10
60.0
 20
-35.99999999999999
  0
LWPOLYLINE
  5
6B4
330
1F
100
AcDbEntity
  8
SECTIONS
100
AcDbPolyline
 90
        4
 70
     1
 43
0.0
 10
60.0
 20
-35.99999999999999
 10
60.0
 20
-11.99999999999999
 10
84.0
 20
-11.99999999999999
 10
84.0
 20
-35.99999999999999
  0
LWPOLYLINE
  5
6B5
330
1F
100
AcDbEntity
  8
SECTIONS
100
AcDbPolyline
 90
        4
 70
     1
 43
0.0
 10
84.0
 20
-35.99999999999999
 10
84.0
 20
-11.99999999999999
 10
108.0
 20
-11.99999999999999
 10
108.0
 20
-35.99999999999999
  0
LWPOLYLINE
  5
6B6
330
1F
100
AcDbEntity
  8
SECTIONS
100
AcDbPolyline
 90
        4
 70
     1
 43
0.0
 10
36.0
 20
-11.99999999999999
 10
36.0
 20
12.0
 10
60.0
 20
12.0
 10
60.0
 20
-11.99999999999999
  0
LWPOLYLINE
  5
6B7
330
1F
100
AcDbEntity
  8
SECTIONS
100
AcDbPolyline
 90
        4
 70
     1
 43
0.0
 10
60.0
 20
-11.99999999999999
 10
60.0
 20
12.0
 10
84.0
 20
12.0
 10
84.0
 20
-11.99999999999999
  0
LWPOLYLINE
  5
6B8
330
1F
100
AcDbEntity
  8
SECTIONS
100
AcDbPolyline
 90
        4
 70
     1
 43
0.0
 10
84.0
 20
-11.99999999999999
 10
84.0
 20
12.0
 10
108.0
 20
12.0
 10
108.0
 20
-11.99999999999999
  0
LWPOLYLINE
  5
6B9
330
1F
100
AcDbEntity
  8
SECTIONS
100
AcDbPolyline
 90
        4
 70
     1
 43
0.0
 10
36.0
 20
12.0
 10
36.0
 20
35.99999999999999
 10
60.0
 20
35.99999999999999
 10
60.0
 20
12.0
  0
LWPOLYLINE
  5
6BA
330
1F
100
AcDbEntity
  8
SECTIONS
100
AcDbPolyline
 90
        4
 70
     1
 43
0.0
 10
60.0
 20
12.0
 10
60.0
 20
35.99999999999999
 10
84.0
 20
35.99999999999999
 10
84.0
 20
12.0
  0
LWPOLYLINE
  5
6BB
330
1F
100
AcDbEntity
  8
SECTIONS
100
AcDbPolyline
 90
        4
 70
     1
 43
0.0
 10
84.0
 20
12.0
 10
84.0
 20
35.99999999999999
 10
108.0
 20
35.99999999999999
 10
108.0
 20
12.0
  0
CIRCLE
  5
6BC
330
1F
100
AcDbEntity
  8
HEATSINK_HOLES
100
AcDbCircle
 10
40.49999999999999
 20
31.49999999999999
 30
0.0
 40
1.5
  0
CIRCLE
  5
6BD
330
1F
100
AcDbEntity
  8
HEATSINK_HOLES
100
AcDbCircle
 10
103.5
 20
31.49999999999999
 30
0.0
 40
1.5
  0
CIRCLE
  5
6BE
330
1F
100
AcDbEntity
  8
HEATSINK_HOLES
100
AcDbCircle
 10
103.5
 20
-31.49999999999999
 30
0.0
 40
1.5
  0
CIRCLE
  5
6BF
330
1F
100
AcDbEntity
  8
HEATSINK_HOLES
100
AcDbCircle
 10
40.49999999999999
 20
-31.49999999999999
 30
0.0
 40
1.5
  0
CIRCLE
  5
6C0
330
1F
100
AcDbEntity
  8
SECTIONS
100
AcDbCircle
 10
72.0
 20
0.0
 30
0.0
 40
8.722738031459535
  0
LWPOLYLINE
  5
6DF
330
1F
100
AcDbEntity
  8
SECTIONS
100
AcDbPolyline
 90
        4
 70
     1
 43
0.0
 10
108.0
 20
-35.99999999999999
 10
108.0
 20
-11.99999999999999
 10
132.0
 20
-11.99999999999999
 10
132.0
 20
-35.99999999999999
  0
LWPOLYLINE
  5
6E0
330
1F
100
AcDbEntity
  8
SECTIONS
100
AcDbPolyline
 90
        4
 70
     1
 43
0.0
 10
132.0
 20
-35.99999999999999
 10
132.0
 20
-11.99999999999999
 10
156.0
 20
-11.99999999999999
 10
156.0
 20
-35.99999999999999
  0
LWPOLYLINE
  5
6E1
330
1F
100
AcDbEntity
  8
SECTIONS
100
AcDbPolyline
 90
        4
 70
     1
 43
0.0
 10
156.0
 20
-35.99999999999999
 10
156.0
 20
-11.99999999999999
 10
180.0
 20
-11.99999999999999
 10
180.0
 20
-35.99999999999999
  0
LWPOLYLINE
  5
6E2
330
1F
100
AcDbEntity
  8
SECTIONS
100
AcDbPolyline
 90
        4
 70
     1
 43
0.0
 10
108.0
 20
-11.99999999999999
 10
108.0
 20
12.0
 10
132.0
 20
12.0
 10
132.0
 20
-11.99999999999999
  0
LWPOLYLINE
  5
6E3
330
1F
100
AcDbEntity
  8
SECTIONS
100
AcDbPolyline
 90
        4
 70
     1
 43
0.0
 10
132.0
 20
-11.99999999999999
 10
132.0
 20
12.0
 10
156.0
 20
12.0
 10
156.0
 20
-11.99999999999999
  0
LWPOLYLINE
  5
6E4
330
1F
100
AcDbEntity
  8
SECTIONS
100
AcDbPolyline
 90
        4
 70
     1
 43
0.0
 10
156.0
 20
-11.99999999999999
 10
156.0
 20
12.0
 10
180.0
 20
12.0
 10
180.0
 20
-11.99999999999999
  0
LWPOLYLINE
  5
6E5
330
1F
100
AcDbEntity
  8
SECTIONS
100
AcDbPolyline
 90
        4
 70
     1
 43
0.0
 10
108.0
 20
12.0
 10
108.0
 20
35.99999999999999
 10
132.0
 20
35.99999999999999
 10
132.0
 20
12.0
  0
LWPOLYLINE
  5
6E6
330
1F
100
AcDbEntity
  8
SECTIONS
100
AcDbPolyline
 90
        4
 70
     1
 43
0.0
 10
132.0
 20
12.0
 10
132.0
 20
35.99999999999999
 10
156.0
 20
35.99999999999999
 10
156.0
 20
12.0
  0
LWPOLYLINE
  5
6E7
330
1F
100
AcDbEntity
  8
SECTIONS
100
AcDbPolyline
 90
        4
 70
     1
 43
0.0
 10
156.0
 20
12.0
 10
156.0
 20
35.99999999999999
 10
180.0
 20
35.99999999999999
 10
180.0
 20
12.0
  0
CIRCLE
  5
6E8
330
1F
100
AcDbEntity
  8
HEATSINK_HOLES
100
AcDbCircle
 10
112.5
 20
31.49999999999999
 30
0.0
 40
1.5
  0
CIRCLE
  5
6E9
330
1F
100
AcDbEntity
  8
HEATSINK_HOLES
100
AcDbCircle
 10
175.5
 20
31.49999999999999
 30
0.0
 40
1.5
  0
CIRCLE
  5
6EA
330
1F
100
AcDbEntity
  8
HEATSINK_HOLES
100
AcDbCircle
 10
175.5
 20
-31.49999999999999
 30
0.0
 40
1.5
  0
CIRCLE
  5
6EB
330
1F
100
AcDbEntity
  8
HEATSINK_HOLES
100
AcDbCircle
 10
112.5
 20
-31.49999999999999
 30
0.0
 40
1.5
  0
CIRCLE
  5
6EC
330
1F
100
AcDbEntity
  8
SECTIONS
100
AcDbCircle
 10
144.0
 20
0.0
 30
0.0
 40
8.722738031459535
  0
LWPOLYLINE
  5
70B
330
1F
100
AcDbEntity
  8
SECTIONS
100
AcDbPolyline
 90
        4
 70
     1
 43
0.0
 10
-36.0
 20
35.99999999999999
 10
-36.0
 20
59.99999999999998
 10
-12.0
 20
59.99999999999998
 10
-12.0
 20
35.99999999999999
  0
LWPOLYLINE
  5
70C
330
1F
100
AcDbEntity
  8
SECTIONS
100
AcDbPolyline
 90
        4
 70
     1
 43
0.0
 10
-12.0
 20
35.99999999999999
 10
-12.0
 20
59.99999999999998
 10
12.0
 20
59.99999999999998
 10
12.0
 20
35.99999999999999
  0
LWPOLYLINE
  5
70D
330
1F
100
AcDbEntity
  8
SECTIONS
100
AcDbPolyline
 90
        4
 70
     1
 43
0.0
 10
12.0
 20
35.99999999999999
 10
12.0
 20
59.99999999999998
 10
36.0
 20
59.99999999999998
 10
36.0
 20
35.99999999999999
  0
LWPOLYLINE
  5
70E
330
1F
100
AcDbEntity
  8
SECTIONS
100
AcDbPolyline
 90
        4
 70
     1
 43
0.0
 10
-36.0
 20
59.99999999999998
 10
-36.0
 20
83.99999999999997
 10
-12.0
 20
83.99999999999997
 10
-12.0
 20
59.99999999999998
  0
LWPOLYLINE
  5
70F
330
1F
100
AcDbEntity
  8
SECTIONS
100
AcDbPolyline
 90
        4
 70
     1
 43
0.0
 10
-12.0
 20
59.99999999999998
 10
-12.0
 20
83.99999999999997
 10
12.0
 20
83.99999999999997
 10
12.0
 20
59.99999999999998
  0
LWPOLYLINE
  5
710
330
1F
100
AcDbEntity
  8
SECTIONS
100
AcDbPolyline
 90
        4
 70
     1
 43
0.0
 10
12.0
 20
59.99999999999998
 10
12.0
 20
83.99999999999997
 10
36.0
 20
83.99999999999997
 10
36.0
 20
59.99999999999998
  0
LWPOLYLINE
  5
711
330
1F
100
AcDbEntity
  8
SECTIONS
100
AcDbPolyline
 90
        4
 70
     1
 43
0.0
 10
-36.0
 20
83.99999999999997
 10
-36.0
 20
108.0
 10
-12.0
 20
108.0
 10
-12.0
 20
83.99999999999997
  0
LWPOLYLINE
  5
712
330
1F
100
AcDbEntity
  8
SECTIONS
100
AcDbPolyline
 90
        4
 70
     1
 43
0.0
 10
-12.0
 20
83.99999999999997
 10
-12.0
 20
108.0
 10
12.0
 20
108.0
 10
12.0
 20
83.99999999999997
  0
LWPOLYLINE
  5
713
330
1F
100
AcDbEntity
  8
SECTIONS
100
AcDbPolyline
 90
        4
 70
     1
 43
0.0
 10
12.0
 20
83.99999999999997
 10
12.0
 20
108.0
 10
36.0
 20
108.0
 10
36.0
 20
83.99999999999997
  0
CIRCLE
  5
714
330
1F
100
AcDbEntity
  8
HEATSINK_HOLES
100
AcDbCircle
 10
-31.50000000000001
 20
103.5
 30
0.0
 40
1.5
  0
CIRCLE
  5
715
330
1F
100
AcDbEntity
  8
HEATSINK_HOLES
100
AcDbCircle
 10
31.50000000000001
 20
103.5
 30
0.0
 40
1.5
  0
CIRCLE
  5
716
330
1F
100
AcDbEntity
  8
HEATSINK_HOLES
100
AcDbCircle
 10
31.5
 20
40.49999999999999
 30
0.0
 40
1.5
  0
CIRCLE
  5
717
330
1F
100
AcDbEntity
  8
HEATSINK_HOLES
100
AcDbCircle
 10
-31.50000000000001
 20
40.49999999999998
 30
0.0
 40
1.5
  0
CIRCLE
  5
718
330
1F
100
AcDbEntity
  8
SECTIONS
100
AcDbCircle
 10
0.0
 20
71.99999999999997
 30
0.0
 40
8.722738031459535
  0
LWPOLYLINE
  5
737
330
1F
100
AcDbEntity
  8
SECTIONS
100
AcDbPolyline
 90
        4
 70
     1
 43
0.0
 10
36.0
 20
35.99999999999999
 10
36.0
 20
59.99999999999998
 10
60.0
 20
59.99999999999998
 10
60.0
 20
35.99999999999999
  0
LWPOLYLINE
  5
738
330
1F
100
AcDbEntity
  8
SECTIONS
100
AcDbPolyline
 90
        4
 70
     1
 43
0.0
 10
60.0
 20
35.99999999999999
 10
60.0
 20
59.99999999999998
 10
84.0
 20
59.99999999999998
 10
84.0
 20
35.99999999999999
  0
LWPOLYLINE
  5
739
330
1F
100
AcDbEntity
  8
SECTIONS
100
AcDbPolyline
 90
        4
 70
     1
 43
0.0
 10
84.0
 20
35.99999999999999
 10
84.0
 20
59.99999999999998
 10
108.0
 20
59.99999999999998
 10
108.0
 20
35.99999999999999
  0
LWPOLYLINE
  5
73A
330
1F
100
AcDbEntity
  8
SECTIONS
100
AcDbPolyline
 90
        4
 70
     1
 43
0.0
 10
36.0
 20
59.99999999999998
 10
36.0
 20
83.99999999999997
 10
60.0
 20
83.99999999999997
 10
60.0
 20
59.99999999999998
  0
LWPOLYLINE
  5
73B
330
1F
100
AcDbEntity
  8
SECTIONS
100
AcDbPolyline
 90
        4
 70
     1
 43
0.0
 10
60.0
 20
59.99999999999998
 10
60.0
 20
83.99999999999997
 10
84.0
 20
83.99999999999997
 10
84.0
 20
59.99999999999998
  0
LWPOLYLINE
  5
73C
330
1F
100
AcDbEntity
  8
SECTIONS
100
AcDbPolyline
 90
        4
 70
     1
 43
0.0
 10
84.0
 20
59.99999999999998
 10
84.0
 20
83.99999999999997
 10
108.0
 20
83.99999999999997
 10
108.0
 20
59.99999999999998
  0
LWPOLYLINE
  5
73D
330
1F
100
AcDbEntity
  8
SECTIONS
100
AcDbPolyline
 90
        4
 70
     1
 43
0.0
 10
36.0
 20
83.99999999999997
 10
36.0
 20
108.0
 10
60.0
 20
108.0
 10
60.0
 20
83.99999999999997
  0
LWPOLYLINE
  5
73E
330
1F
100
AcDbEntity
  8
SECTIONS
100
AcDbPolyline
 90
        4
 70
     1
 43
0.0
 10
60.0
 20
83.99999999999997
 10
60.0
 20
108.0
 10
84.0
 20
108.0
 10
84.0
 20
83.99999999999997
  0
LWPOLYLINE
  5
73F
330
1F
100
AcDbEntity
  8
SECTIONS
100
AcDbPolyline
 90
        4
 70
     1
 43
0.0
 10
84.0
 20
83.99999999999997
 10
84.0
 20
108.0
 10
108.0
 20
108.0
 10
108.0
 20
83.99999999999997
  0
CIRCLE
  5
740
330
1F
100
AcDbEntity
  8
HEATSINK_HOLES
100
AcDbCircle
 10
40.49999999999999
 20
103.5
 30
0.0
 40
1.5
  0
CIRCLE
  5
741
330
1F
100
AcDbEntity
  8
HEATSINK_HOLES
100
AcDbCircle
 10
103.5
 20
103.5
 30
0.0
 40
1.5
  0
CIRCLE
  5
742
330
1F
100
AcDbEntity
  8
HEATSINK_HOLES
100
AcDbCircle
 10
103.5
 20
40.49999999999999
 30
0.0
 40
1.5
  0
CIRCLE
  5
743
330
1F
100
AcDbEntity
  8
HEATSINK_HOLES
100
AcDbCircle
 10
40.49999999999999
 20
40.49999999999998
 30
0.0
 40
1.5
  0
CIRCLE
  5
744
330
1F
100
AcDbEntity
  8
SECTIONS
100
AcDbCircle
 10
72.0
 20
71.99999999999997
 30
0.0
 40
8.722738031459535
  0
LWPOLYLINE
  5
763
330
1F
100
AcDbEntity
  8
SECTIONS
100
AcDbPolyline
 90
        4
 70
     1
 43
0.0
 10
108.0
 20
35.99999999999999
 10
108.0
 20
59.99999999999998
 10
132.0
 20
59.99999999999998
 10
132.0
 20
35.99999999999999
  0
LWPOLYLINE
  5
764
330
1F
100
AcDbEntity
  8
SECTIONS
100
AcDbPolyline
 90
        4
 70
     1
 43
0.0
 10
132.0
 20
35.99999999999999
 10
132.0
 20
59.99999999999998
 10
156.0
 20
59.99999999999998
 10
156.0
 20
35.99999999999999
  0
LWPOLYLINE
  5
765
330
1F
100
AcDbEntity
  8
SECTIONS
100
AcDbPolyline
 90
        4
 70
     1
 43
0.0
 10
156.0
 20
35.99999999999999
 10
156.0
 20
59.99999999999998
 10
180.0
 20
59.99999999999998
 10
180.0
 20
35.99999999999999
  0
LWPOLYLINE
  5
766
330
1F
100
AcDbEntity
  8
SECTIONS
100
AcDbPolyline
 90
        4
 70
     1
 43
0.0
 10
108.0
 20
59.99999999999998
 10
108.0
 20
83.99999999999997
 10
132.0
 20
83.99999999999997
 10
132.0
 20
59.99999999999998
  0
LWPOLYLINE
  5
767
330
1F
100
AcDbEntity
  8
SECTIONS
100
AcDbPolyline
 90
        4
 70
     1
 43
0.0
 10
132.0
 20
59.99999999999998
 10
132.0
 20
83.99999999999997
 10
156.0
 20
83.99999999999997
 10
156.0
 20
59.99999999999998
  0
LWPOLYLINE
  5
768
330
1F
100
AcDbEntity
  8
SECTIONS
100
AcDbPolyline
 90
        4
 70
     1
 43
0.0
 10
156.0
 20
59.99999999999998
 10
156.0
 20
83.99999999999997
 10
180.0
 20
83.99999999999997
 10
180.0
 20
59.99999999999998
  0
LWPOLYLINE
  5
769
330
1F
100
AcDbEntity
  8
SECTIONS
100
AcDbPolyline
 90
        4
 70
     1
 43
0.0
 10
108.0
 20
83.99999999999997
 10
108.0
 20
108.0
 10
132.0
 20
108.0
 10
132.0
 20
83.99999999999997
  0
LWPOLYLINE
  5
76A
330
1F
100
AcDbEntity
  8
SECTIONS
100
AcDbPolyline
 90
        4
 70
     1
 43
0.0
 10
132.0
 20
83.99999999999997
 10
132.0
 20
108.0
 10
156.0
 20
108.0
 10
156.0
 20
83.99999999999997
  0
LWPOLYLINE
  5
76B
330
1F
100
AcDbEntity
  8
SECTIONS
100
AcDbPolyline
 90
        4
 70
     1
 43
0.0
 10
156.0
 20
83.99999999999997
 10
156.0
 20
108.0
 10
180.0
 20
108.0
 10
180.0
 20
83.99999999999997
  0
CIRCLE
  5
76C
330
1F
100
AcDbEntity
  8
HEATSINK_HOLES
100
AcDbCircle
 10
112.5
 20
103.5
 30
0.0
 40
1.5
  0
CIRCLE
  5
76D
330
1F
100
AcDbEntity
  8
HEATSINK_HOLES
100
AcDbCircle
 10
175.5
 20
103.5
 30
0.0
 40
1.5
  0
CIRCLE
  5
76E
330
1F
100
AcDbEntity
  8
HEATSINK_HOLES
100
AcDbCircle
 10
175.5
 20
40.49999999999999
 30
0.0
 40
1.5
  0
CIRCLE
  5
76F
330
1F
100
AcDbEntity
  8
HEATSINK_HOLES
100
AcDbCircle
 10
112.5
 20
40.49999999999998
 30
0.0
 40
1.5
  0
CIRCLE
  5
770
330
1F
100
AcDbEntity
  8
SECTIONS
100
AcDbCircle
 10
144.0
 20
71.99999999999997
 30
0.0
 40
8.722738031459535
  0
LWPOLYLINE
  5
78F
330
1F
100
AcDbEntity
  8
SECTIONS
100
AcDbPolyline
 90
        4
 70
     1
 43
0.0
 10
-36.0
 20
108.0
 10
-36.0
 20
131.9999999999999
 10
-12.0
 20
131.9999999999999
 10
-12.0
 20
108.0
  0
LWPOLYLINE
  5
790
330
1F
100
AcDbEntity
  8
SECTIONS
100
AcDbPolyline
 90
        4
 70
     1
 43
0.0
 10
-12.0
 20
108.0
 10
-12.0
 20
131.9999999999999
 10
12.0
 20
131.9999999999999
 10
12.0
 20
108.0
  0
LWPOLYLINE
  5
791
330
1F
100
AcDbEntity
  8
SECTIONS
100
AcDbPolyline
 90
        4
 70
     1
 43
0.0
 10
12.0
 20
108.0
 10
12.0
 20
131.9999999999999
 10
36.0
 20
131.9999999999999
 10
36.0
 20
108.0
  0
LWPOLYLINE
  5
792
330
1F
100
AcDbEntity
  8
SECTIONS
100
AcDbPolyline
 90
        4
 70
     1
 43
0.0
 10
-36.0
 20
131.9999999999999
 10
-36.0
 20
155.9999999999999
 10
-12.0
 20
155.9999999999999
 10
-12.0
 20
131.9999999999999
  0
LWPOLYLINE
  5
793
330
1F
100
AcDbEntity
  8
SECTIONS
100
AcDbPolyline
 90
        4
 70
     1
 43
0.0
 10
-12.0
 20
131.9999999999999
 10
-12.0
 20
155.9999999999999
 10
12.0
 20
155.9999999999999
 10
12.0
 20
131.9999999999999
  0
LWPOLYLINE
  5
794
330
1F
100
AcDbEntity
  8
SECTIONS
100
AcDbPolyline
 90
        4
 70
     1
 43
0.0
 10
12.0
 20
131.9999999999999
 10
12.0
 20
155.9999999999999
 10
36.0
 20
155.9999999999999
 10
36.0
 20
131.9999999999999
  0
LWPOLYLINE
  5
795
330
1F
100
AcDbEntity
  8
SECTIONS
100
AcDbPolyline
 90
        4
 70
     1
 43
0.0
 10
-36.0
 20
155.9999999999999
 10
-36.0
 20
179.9999999999999
 10
-12.0
 20
179.9999999999999
 10
-12.0
 20
155.9999999999999
  0
LWPOLYLINE
  5
796
330
1F
100
AcDbEntity
  8
SECTIONS
100
AcDbPolyline
 90
        4
 70
     1
 43
0.0
 10
-12.0
 20
155.9999999999999
 10
-12.0
 20
179.9999999999999
 10
12.0
 20
179.9999999999999
 10
12.0
 20
155.9999999999999
  0
LWPOLYLINE
  5
797
330
1F
100
AcDbEntity
  8
SECTIONS
100
AcDbPolyline
 90
        4
 70
     1
 43
0.0
 10
12.0
 20
155.9999999999999
 10
12.0
 20
179.9999999999999
 10
36.0
 20
179.9999999999999
 10
36.0
 20
155.9999999999999
  0
CIRCLE
  5
798
330
1F
100
AcDbEntity
  8
HEATSINK_HOLES
100
AcDbCircle
 10
-31.50000000000001
 20
175.4999999999999
 30
0.0
 40
1.5
  0
CIRCLE
  5
799
330
1F
100
AcDbEntity
  8
HEATSINK_HOLES
100
AcDbCircle
 10
31.50000000000001
 20
175.4999999999999
 30
0.0
 40
1.5
  0
CIRCLE
  5
79A
330
1F
100
AcDbEntity
  8
HEATSINK_HOLES
100
AcDbCircle
 10
31.5
 20
112.5
 30
0.0
 40
1.5
  0
CIRCLE
  5
79B
330
1F
100
AcDbEntity
  8
HEATSINK_HOLES
100
AcDbCircle
 10
-31.50000000000001
 20
112.4999999999999
 30
0.0
 40
1.5
  0
CIRCLE
  5
79C
330
1F
100
AcDbEntity
  8
SECTIONS
100
AcDbCircle
 10
0.0
 20
143.9999999999999
 30
0.0
 40
8.722738031459535
  0
LWPOLYLINE
  5
7BB
330
1F
100
AcDbEntity
  8
SECTIONS
100
AcDbPolyline
 90
        4
 70
     1
 43
0.0
 10
36.0
 20
108.0
 10
36.0
 20
131.9999999999999
 10
60.0
 20
131.9999999999999
 10
60.0
 20
108.0
  0
LWPOLYLINE
  5
7BC
330
1F
100
AcDbEntity
  8
SECTIONS
100
AcDbPolyline
 90
        4
 70
     1
 43
0.0
 10
60.0
 20
108.0
 10
60.0
 20
131.9999999999999
 10
84.0
 20
131.9999999999999
 10
84.0
 20
108.0
  0
LWPOLYLINE
  5
7BD
330
1F
100
AcDbEntity
  8
SECTIONS
100
AcDbPolyline
 90
        4
 70
     1
 43
0.0
 10
84.0
 20
108.0
 10
84.0
 20
131.9999999999999
 10
108.0
 20
131.9999999999999
 10
108.0
 20
108.0
  0
LWPOLYLINE
  5
7BE
330
1F
100
AcDbEntity
  8
SECTIONS
100
AcDbPolyline
 90
        4
 70
     1
 43
0.0
 10
36.0
 20
131.9999999999999
 10
36.0
 20
155.9999999999999
 10
60.0
 20
155.9999999999999
 10
60.0
 20
131.9999999999999
  0
LWPOLYLINE
  5
7BF
330
1F
100
AcDbEntity
  8
SECTIONS
100
AcDbPolyline
 90
        4
 70
     1
 43
0.0
 10
60.0
 20
131.9999999999999
 10
60.0
 20
155.9999999999999
 10
84.0
 20
155.9999999999999
 10
84.0
 20
131.9999999999999
  0
LWPOLYLINE
  5
7C0
330
1F
100
AcDbEntity
  8
SECTIONS
100
AcDbPolyline
 90
        4
 70
     1
 43
0.0
 10
84.0
 20
131.9999999999999
 10
84.0
 20
155.9999999999999
 10
108.0
 20
155.9999999999999
 10
108.0
 20
131.9999999999999
  0
LWPOLYLINE
  5
7C1
330
1F
100
AcDbEntity
  8
SECTIONS
100
AcDbPolyline
 90
        4
 70
     1
 43
0.0
 10
36.0
 20
155.9999999999999
 10
36.0
 20
179.9999999999999
 10
60.0
 20
179.9999999999999
 10
60.0
 20
155.9999999999999
  0
LWPOLYLINE
  5
7C2
330
1F
100
AcDbEntity
  8
SECTIONS
100
AcDbPolyline
 90
        4
 70
     1
 43
0.0
 10
60.0
 20
155.9999999999999
 10
60.0
 20
179.9999999999999
 10
84.0
 20
179.9999999999999
 10
84.0
 20
155.9999999999999
  0
LWPOLYLINE
  5
7C3
330
1F
100
AcDbEntity
  8
SECTIONS
100
AcDbPolyline
 90
        4
 70
     1
 43
0.0
 10
84.0
 20
155.9999999999999
 10
84.0
 20
179.9999999999999
 10
108.0
 20
179.9999999999999
 10
108.0
 20
155.9999999999999
  0
CIRCLE
  5
7C4
330
1F
100
AcDbEntity
  8
HEATSINK_HOLES
100
AcDbCircle
 10
40.49999999999999
 20
175.4999999999999
 30
0.0
 40
1.5
  0
CIRCLE
  5
7C5
330
1F
100
AcDbEntity
  8
HEATSINK_HOLES
100
AcDbCircle
 10
103.5
 20
175.4999999999999
 30
0.0
 40
1.5
  0
CIRCLE
  5
7C6
330
1F
100
AcDbEntity
  8
HEATSINK_HOLES
100
AcDbCircle
 10
103.5
 20
112.5
 30
0.0
 40
1.5
  0
CIRCLE
  5
7C7
330
1F
100
AcDbEntity
  8
HEATSINK_HOLES
100
AcDbCircle
 10
40.49999999999999
 20
112.4999999999999
 30
0.0
 40
1.5
  0
CIRCLE
  5
7C8
330
1F
100
AcDbEntity
  8
SECTIONS
100
AcDbCircle
 10
72.0
 20
143.9999999999999
 30
0.0
 40
8.722738031459535
  0
LWPOLYLINE
  5
7E7
330
1F
100
AcDbEntity
  8
SECTIONS
100
AcDbPolyline
 90
        4
 70
     1
 43
0.0
 10
108.0
 20
108.0
 10
108.0
 20
131.9999999999999
 10
132.0
 20
131.9999999999999
 10
132.0
 20
108.0
  0
LWPOLYLINE
  5
7E8
330
1F
100
AcDbEntity
  8
SECTIONS
100
AcDbPolyline
 90
        4
 70
     1
 43
0.0
 10
132.0
 20
108.0
 10
132.0
 20
131.9999999999999
 10
156.0
 20
131.9999999999999
 10
156.0
 20
108.0
  0
LWPOLYLINE
  5
7E9
330
1F
100
AcDbEntity
  8
SECTIONS
100
AcDbPolyline
 90
        4
 70
     1
 43
0.0
 10
156.0
 20
108.0
 10
156.0
 20
131.9999999999999
 10
180.0
 20
131.9999999999999
 10
180.0
 20
108.0
  0
LWPOLYLINE
  5
7EA
330
1F
100
AcDbEntity
  8
SECTIONS
100
AcDbPolyline
 90
        4
 70
     1
 43
0.0
 10
108.0
 20
131.9999999999999
 10
108.0
 20
155.9999999999999
 10
132.0
 20
155.9999999999999
 10
132.0
 20
131.9999999999999
  0
LWPOLYLINE
  5
7EB
330
1F
100
AcDbEntity
  8
SECTIONS
100
AcDbPolyline
 90
        4
 70
     1
 43
0.0
 10
132.0
 20
131.9999999999999
 10
132.0
 20
155.9999999999999
 10
156.0
 20
155.9999999999999
 10
156.0
 20
131.9999999999999
  0
LWPOLYLINE
  5
7EC
330
1F
100
AcDbEntity
  8
SECTIONS
100
AcDbPolyline
 90
        4
 70
     1
 43
0.0
 10
156.0
 20
131.9999999999999
 10
156.0
 20
155.9999999999999
 10
180.0
 20
155.9999999999999
 10
180.0
 20
131.9999999999999
  0
LWPOLYLINE
  5
7ED
330
1F
100
AcDbEntity
  8
SECTIONS
100
AcDbPolyline
 90
        4
 70
     1
 43
0.0
 10
108.0
 20
155.9999999999999
 10
108.0
 20
179.9999999999999
 10
132.0
 20
179.9999999999999
 10
132.0
 20
155.9999999999999
  0
LWPOLYLINE
  5
7EE
330
1F
100
AcDbEntity
  8
SECTIONS
100
AcDbPolyline
 90
        4
 70
     1
 43
0.0
 10
132.0
 20
155.9999999999999
 10
132.0
 20
179.9999999999999
 10
156.0
 20
179.9999999999999
 10
156.0
 20
155.9999999999999
  0
LWPOLYLINE
  5
7EF
330
1F
100
AcDbEntity
  8
SECTIONS
100
AcDbPolyline
 90
        4
 70
     1
 43
0.0
 10
156.0
 20
155.9999999999999
 10
156.0
 20
179.9999999999999
 10
180.0
 20
179.9999999999999
 10
180.0
 20
155.9999999999999
  0
CIRCLE
  5
7F0
330
1F
100
AcDbEntity
  8
HEATSINK_HOLES
100
AcDbCircle
 10
112.5
 20
175.4999999999999
 30
0.0
 40
1.5
  0
CIRCLE
  5
7F1
330
1F
100
AcDbEntity
  8
HEATSINK_HOLES
100
AcDbCircle
 10
175.5
 20
175.4999999999999
 30
0.0
 40
1.5
  0
CIRCLE
  5
7F2
330
1F
100
AcDbEntity
  8
HEATSINK_HOLES
100
AcDbCircle
 10
175.5
 20
112.5
 30
0.0
 40
1.5
  0
CIRCLE
  5
7F3
330
1F
100
AcDbEntity
  8
HEATSINK_HOLES
100
AcDbCircle
 10
112.5
 20
112.4999999999999
 30
0.0
 40
1.5
  0
CIRCLE
  5
7F4
330
1F
100
AcDbEntity
  8
SECTIONS
100
AcDbCircle
 10
144.0
 20
143.9999999999999
 30
0.0
 40
8.722738031459535
  0
CIRCLE
  5
7F9
330
1F
100
AcDbEntity
  8
WIRE_HOLES
100
AcDbCircle
 10
12.0
 20
108.0
 30
0.0
 40
2.1
  0
CIRCLE
  5
80C
330
1F
100
AcDbEntity
  8
WIRE_HOLES
100
AcDbCircle
 10
-12.0
 20
108.0
 30
0.0
 40
2.1
  0
CIRCLE
  5
82D
330
1F
100
AcDbEntity
  8
WIRE_HOLES
100
AcDbCircle
 10
12.0
 20
35.99999999999999
 30
0.0
 40
2.1
  0
CIRCLE
  5
82E
330
1F
100
AcDbEntity
  8
WIRE_HOLES
100
AcDbCircle
 10
-12.0
 20
35.99999999999999
 30
0.0
 40
2.1
  0
CIRCLE
  5
840
330
1F
100
AcDbEntity
  8
WIRE_HOLES
100
AcDbCircle
 10
84.0
 20
35.99999999999999
 30
0.0
 40
2.1
  0
CIRCLE
  5
841
330
1F
100
AcDbEntity
  8
WIRE_HOLES
100
AcDbCircle
 10
60.0
 20
35.99999999999999
 30
0.0
 40
2.1
  0
CIRCLE
  5
853
330
1F
100
AcDbEntity
  8
WIRE_HOLES
100
AcDbCircle
 10
84.0
 20
108.0
 30
0.0
 40
2.1
  0
CIRCLE
  5
854
330
1F
100
AcDbEntity
  8
WIRE_HOLES
100
AcDbCircle
 10
60.0
 20
108.0
 30
0.0
 40
2.1
  0
CIRCLE
  5
866
330
1F
100
AcDbEntity
  8
WIRE_HOLES
100
AcDbCircle
 10
156.0
 20
108.0
 30
0.0
 40
2.1
  0
CIRCLE
  5
867
330
1F
100
AcDbEntity
  8
WIRE_HOLES
100
AcDbCircle
 10
132.0
 20
108.0
 30
0.0
 40
2.1
  0
CIRCLE
  5
879
330
1F
100
AcDbEntity
  8
WIRE_HOLES
100
AcDbCircle
 10
156.0
 20
35.99999999999999
 30
0.0
 40
2.1
  0
CIRCLE
  5
87A
330
1F
100
AcDbEntity
  8
WIRE_HOLES
100
AcDbCircle
 10
132.0
 20
35.99999999999999
 30
0.0
 40
2.1
  0
CIRCLE
  5
89F
330
1F
100
AcDbEntity
  8
WIRE_HOLES
100
AcDbCircle
 10
108.0
 20
83.99999999999997
 30
0.0
 40
2.1
  0
CIRCLE
  5
8A0
330
1F
100
AcDbEntity
  8
WIRE_HOLES
100
AcDbCircle
 10
108.0
 20
59.99999999999998
 30
0.0
 40
2.1
  0
CIRCLE
  5
8B2
330
1F
100
AcDbEntity
  8
WIRE_HOLES
100
AcDbCircle
 10
36.0
 20
83.99999999999997
 30
0.0
 40
2.1
  0
CIRCLE
  5
8B3
330
1F
100
AcDbEntity
  8
WIRE_HOLES
100
AcDbCircle
 10
36.0
 20
59.99999999999998
 30
0.0
 40
2.1
  0
CIRCLE
  5
8C5
330
1F
100
AcDbEntity
  8
WIRE_HOLES
100
AcDbCircle
 10
36.0
 20
155.9999999999999
 30
0.0
 40
2.1
  0
CIRCLE
  5
8C6
330
1F
100
AcDbEntity
  8
WIRE_HOLES
100
AcDbCircle
 10
36.0
 20
131.9999999999999
 30
0.0
 40
2.1
  0
CIRCLE
  5
8D8
330
1F
100
AcDbEntity
  8
WIRE_HOLES
100
AcDbCircle
 10
108.0
 20
155.9999999999999
 30
0.0
 40
2.1
  0
CIRCLE
  5
8D9
330
1F
100
AcDbEntity
  8
WIRE_HOLES
100
AcDbCircle
 10
108.0
 20
131.9999999999999
 30
0.0
 40
2.1
  0
CIRCLE
  5
8F4
330
1F
100
AcDbEntity
  8
LEG_HOLES
100
AcDbCircle
 10
168.0
 20
215.9999999999999
 30
0.0
 40
6.75
  0
CIRCLE
  5
8F9
330
1F
100
AcDbEntity
  8
LEG_HOLES
100
AcDbCircle
 10
-24.00000000000011
 20
215.9999999999999
 30
0.0
 40
6.75
  0
CIRCLE
  5
8FA
330
1F
100
AcDbEntity
  8
LEG_HOLES
100
AcDbCircle
 10
168.0
 20
-72.0
 30
0.0
 40
6.75
  0
CIRCLE
  5
8FB
330
1F
100
AcDbEntity
  8
LEG_HOLES
100
AcDbCircle
 10
-24.00000000000007
 20
-72.00000000000003
 30
0.0
 40
6.75
  0
CIRCLE
  5
960
330
1F
100
AcDbEntity
  8
WIRE_HOLES
100
AcDbCircle
 10
156.0
 20
179.9999999999999
 30
0.0
 40
2.1
  0
CIRCLE
  5
961
330
1F
100
AcDbEntity
  8
WIRE_HOLES
100
AcDbCircle
 10
132.0
 20
179.9999999999999
 30
0.0
 40
2.1
  0
CIRCLE
  5
973
330
1F
100
AcDbEntity
  8
WIRE_HOLES
100
AcDbCircle
 10
84.0
 20
179.9999999999999
 30
0.0
 40
2.1
  0
CIRCLE
  5
974
330
1F
100
AcDbEntity
  8
WIRE_HOLES
100
AcDbCircle
 10
60.0
 20
179.9999999999999
 30
0.0
 40
2.1
  0
CIRCLE
  5
986
330
1F
100
AcDbEntity
  8
WIRE_HOLES
100
AcDbCircle
 10
12.0
 20
179.9999999999999
 30
0.0
 40
2.1
  0
CIRCLE
  5
987
330
1F
100
AcDbEntity
  8
WIRE_HOLES
100
AcDbCircle
 10
-12.0
 20
179.9999999999999
 30
0.0
 40
2.1
  0
CIRCLE
  5
999
330
1F
100
AcDbEntity
  8
WIRE_HOLES
100
AcDbCircle
 10
12.0
 20
-35.99999999999999
 30
0.0
 40
2.1
  0
CIRCLE
  5
99A
330
1F
100
AcDbEntity
  8
WIRE_HOLES
100
AcDbCircle
 10
-12.0
 20
-35.99999999999999
 30
0.0
 40
2.1
  0
CIRCLE
  5
9AC
330
1F
100
AcDbEntity
  8
WIRE_HOLES
100
AcDbCircle
 10
84.0
 20
-35.99999999999999
 30
0.0
 40
2.1
  0
CIRCLE
  5
9AD
330
1F
100
AcDbEntity
  8
WIRE_HOLES
100
AcDbCircle
 10
60.0
 20
-35.99999999999999
 30
0.0
 40
2.1
  0
CIRCLE
  5
9BF
330
1F
100
AcDbEntity
  8
WIRE_HOLES
100
AcDbCircle
 10
156.0
 20
-35.99999999999999
 30
0.0
 40
2.1
  0
CIRCLE
  5
9C0
330
1F
100
AcDbEntity
  8
WIRE_HOLES
100
AcDbCircle
 10
132.0
 20
-35.99999999999999
 30
0.0
 40
2.1
  0
LWPOLYLINE
  5
A3F
330
1F
100
AcDbEntity
  8
COPPER_BASE
100
AcDbPolyline
 90
       32
 70
     1
 43
0.0
 10
179.9999999999999
 20
158.0999999999999
 10
179.9999999999999
 20
224.9999999999999
 42
0.4142135623730949
 10
176.9999999999999
 20
227.9999999999999
 10
-33.0
 20
227.9999999999999
 42
0.4142135623730949
 10
-36.0
 20
224.9999999999999
 10
-36.0
 20
158.0999999999999
 42
-0.9999999999999999
 10
-36.0
 20
153.8999999999999
 10
-36.0
 20
134.0999999999999
 42
-0.9999999999999999
 10
-36.0
 20
129.8999999999999
 10
-36.0
 20
86.09999999999997
 42
-0.9999999999999999
 10
-36.0
 20
81.89999999999998
 10
-36.0
 20
62.09999999999998
 42
-0.9999999999999999
 10
-36.0
 20
57.89999999999998
 10
-36.0
 20
14.10000000000001
 42
-0.9999999999999999
 10
-36.0
 20
9.900000000000007
 10
-36.0
 20
-9.899999999999991
 42
-0.9999999999999999
 10
-36.0
 20
-14.09999999999999
 10
-36.0
 20
-81.00000000000006
 42
0.4142135623730949
 10
-33.0
 20
-84.00000000000006
 10
176.9999999999999
 20
-84.0
 42
0.4142135623730949
 10
179.9999999999999
 20
-81.0
 10
179.9999999999999
 20
-14.09999999999998
 42
-0.9999999999999457
 10
179.9999999999999
 20
-9.899999999999993
 10
179.9999999999999
 20
9.900000000000006
 42
-0.9999999999999457
 10
179.9999999999999
 20
14.10000000000001
 10
179.9999999999999
 20
57.89999999999997
 42
-0.9999999999999457
 10
179.9999999999999
 20
62.09999999999998
 10
179.9999999999999
 20
81.89999999999998
 42
-0.9999999999999457
 10
179.9999999999999
 20
86.09999999999997
 10
179.9999999999999
 20
129.8999999999999
 42
-0.9999999999999457
 10
179.9999999999999
 20
134.0999999999999
 10
179.9999999999999
 20
153.8999999999999
 42
-0.9999999999999457
  0
ENDSEC
  0
SECTION
  2
OBJECTS
  0
DICTIONARY
  5
C
330
0
100
AcDbDictionary
  3
ACAD_DETAILVIEWSTYLE
350
122
  3
ACAD_GROUP
350
D
  3
ACAD_IMAGE_VARS
350
DC
  3
ACAD_MLINESTYLE
350
17
  3
ACAD_SCALELIST
350
B6
  3
ACAD_SECTIONVIEWSTYLE
350
123
  3
ACDBVARIABLEDICTIONARY
350
66
  3
APPDATA
350
E1
  3
DWGPROPS
350
AB8
  0
DICTIONARY
  5
1AA
330
2
100
AcDbDictionary
280
     1
  3
ACAD_LAYERSTATES
360
1AB
  3
ACLYDICTIONARY
360
8F8
  0
DICTIONARY
  5
122
102
{ACAD_REACTORS
330
C
102
}
330
C
100
AcDbDictionary
  0
DICTIONARY
  5
D
102
{ACAD_REACTORS
330
C
102
}
330
C
100
AcDbDictionary
  0
RASTERVARIABLES
  5
DC
102
{ACAD_REACTORS
330
C
102
}
330
C
100
AcDbRasterVariables
 90
        0
 70
     1
 71
     1
 72
     5
  0
DICTIONARY
  5
17
102
{ACAD_REACTORS
330
C
102
}
330
C
100
AcDbDictionary
  3
STANDARD
350
18
  0
DICTIONARY
  5
B6
102
{ACAD_REACTORS
330
C
102
}
330
C
100
AcDbDictionary
  0
DICTIONARY
  5
123
102
{ACAD_REACTORS
330
C
102
}
330
C
100
AcDbDictionary
  0
DICTIONARY
  5
66
102
{ACAD_REACTORS
330
C
102
}
330
C
100
AcDbDictionary
  3
DIMASSOC
350
67
  3
HIDETEXT
350
6B
  0
DICTIONARY
  5
E1
102
{ACAD_REACTORS
330
C
102
}
330
C
100
AcDbDictionary
  0
XRECORD
  5
AB8
102
{ACAD_REACTORS
330
C
102
}
330
C
100
AcDbXrecord
  1
DWGPROPS COOKIE
  2

  3

  4

  6

  7

  8
grey
  9

300
=
301
=
302
=
303
=
304
=
305
=
306
=
307
=
308
=
309
=
 40
0.0
 41
2452643.063384271
 42
2458910.894412003
  1

 90
        0
  0
DICTIONARY
  5
1AB
102
{ACAD_REACTORS
330
1AA
102
}
330
1AA
100
AcDbDictionary
  0
DICTIONARY
  5
8F8
102
{ACAD_REACTORS
330
1AA
102
}
330
1AA
100
AcDbDictionary
1001
ACAD
1000
<All
  0
MLINESTYLE
  5
18
102
{ACAD_REACTORS
330
17
102
}
330
17
100
AcDbMlineStyle
  2
STANDARD
 70
     0
  3

 62
   256
 51
90.0
 52
90.0
 71
     2
 49
0.5
 62
   256
  6
BYLAYER
 49
-0.5
 62
   256
  6
BYLAYER
  0
DICTIONARYVAR
  5
67
102
{ACAD_REACTORS
330
66
102
}
330
66
100
DictionaryVariables
280
     0
  1
2
  0
DICTIONARYVAR
  5
6B
102
{ACAD_REACTORS
330
66
102
}
330
66
100
DictionaryVariables
280
     0
  1
1
  0
ENDSEC
  0
EOF
