G04 #@! TF.GenerationSoftware,KiCad,Pcbnew,5.1.5-rc1*
G04 #@! TF.CreationDate,2019-11-07T20:29:01+00:00*
G04 #@! TF.ProjectId,substrate_adapter,73756273-7472-4617-9465-5f6164617074,rev?*
G04 #@! TF.SameCoordinates,Original*
G04 #@! TF.FileFunction,Copper,L2,Bot*
G04 #@! TF.FilePolarity,Positive*
%FSLAX46Y46*%
G04 Gerber Fmt 4.6, Leading zero omitted, Abs format (unit mm)*
G04 Created by KiCad (PCBNEW 5.1.5-rc1) date 2019-11-07 20:29:01*
%MOMM*%
%LPD*%
G04 APERTURE LIST*
%ADD10C,1.900000*%
%ADD11O,1.350000X1.350000*%
%ADD12R,1.350000X1.350000*%
%ADD13C,1.000000*%
G04 APERTURE END LIST*
D10*
X-9450000Y8250000D03*
X-9450000Y1250000D03*
X-9450000Y-5750000D03*
X9450000Y8250000D03*
X9450000Y1250000D03*
X9450000Y-5750000D03*
D11*
X-11700000Y11000000D03*
X-11700000Y9000000D03*
X-11700000Y7000000D03*
X-11700000Y5000000D03*
X-11700000Y3000000D03*
X-11700000Y1000000D03*
X-11700000Y-1000000D03*
X-11700000Y-3000000D03*
X-11700000Y-5000000D03*
X-11700000Y-7000000D03*
X-11700000Y-9000000D03*
D12*
X-11700000Y-11000000D03*
D10*
X-1250000Y11000000D03*
X1250000Y-11000000D03*
D11*
X11700000Y-11000000D03*
X11700000Y-9000000D03*
X11700000Y-7000000D03*
X11700000Y-5000000D03*
X11700000Y-3000000D03*
X11700000Y-1000000D03*
X11700000Y1000000D03*
X11700000Y3000000D03*
X11700000Y5000000D03*
X11700000Y7000000D03*
X11700000Y9000000D03*
D12*
X11700000Y11000000D03*
D10*
X-9450000Y5750000D03*
X-9450000Y-1250000D03*
X-9450000Y-8250000D03*
X-1250000Y-11000000D03*
X1000000Y11000000D03*
X9450000Y5750000D03*
X9450000Y-1250000D03*
X9450000Y-8250000D03*
D13*
X11025001Y-9674999D02*
X11700000Y-9000000D01*
X10799999Y-9900001D02*
X11025001Y-9674999D01*
X8657999Y-9900001D02*
X10799999Y-9900001D01*
X8107997Y-9349999D02*
X8657999Y-9900001D01*
X400001Y-9349999D02*
X8107997Y-9349999D01*
X-1250000Y-11000000D02*
X400001Y-9349999D01*
X-11089998Y-9000000D02*
X-11700000Y-9000000D01*
X-10039997Y-10050001D02*
X-11089998Y-9000000D01*
X-2199999Y-10050001D02*
X-10039997Y-10050001D01*
X-1250000Y-11000000D02*
X-2199999Y-10050001D01*
X-9700000Y11000000D02*
X-1250000Y11000000D01*
X-11700000Y9000000D02*
X-9700000Y11000000D01*
X-943501Y9349999D02*
X-1250000Y9656498D01*
X1792001Y9349999D02*
X-943501Y9349999D01*
X2442002Y10000000D02*
X1792001Y9349999D01*
X-1250000Y9656498D02*
X-1250000Y11000000D01*
X10100001Y10000000D02*
X2442002Y10000000D01*
X11100001Y9000000D02*
X10100001Y10000000D01*
X11700000Y9000000D02*
X11100001Y9000000D01*
M02*
