M48
; DRILL file {KiCad 5.1.5-rc1} date Thu 07 Nov 2019 08:29:05 PM GMT
; FORMAT={-:-/ absolute / metric / decimal}
; #@! TF.CreationDate,2019-11-07T20:29:05+00:00
; #@! TF.GenerationSoftware,Kicad,Pcbnew,5.1.5-rc1
; #@! TF.FileFunction,Plated,1,2,PTH
FMAT,2
METRIC
T1C0.800
T2C1.630
%
G90
G05
T1
X-11.7Y11.0
X-11.7Y9.0
X-11.7Y7.0
X-11.7Y5.0
X-11.7Y3.0
X-11.7Y1.0
X-11.7Y-1.0
X-11.7Y-3.0
X-11.7Y-5.0
X-11.7Y-7.0
X-11.7Y-9.0
X-11.7Y-11.0
X11.7Y11.0
X11.7Y9.0
X11.7Y7.0
X11.7Y5.0
X11.7Y3.0
X11.7Y1.0
X11.7Y-1.0
X11.7Y-3.0
X11.7Y-5.0
X11.7Y-7.0
X11.7Y-9.0
X11.7Y-11.0
T2
X9.45Y-5.75
X-1.25Y-11.0
X-9.45Y-1.25
X-1.25Y11.0
X9.45Y-1.25
X9.45Y8.25
X-9.45Y1.25
X-9.45Y5.75
X9.45Y-8.25
X1.0Y11.0
X-9.45Y8.25
X9.45Y1.25
X1.25Y-11.0
X-9.45Y-8.25
X9.45Y5.75
X-9.45Y-5.75
T0
M30
