G04 #@! TF.GenerationSoftware,KiCad,Pcbnew,5.1.5-rc1*
G04 #@! TF.CreationDate,2019-11-07T20:29:01+00:00*
G04 #@! TF.ProjectId,substrate_adapter,73756273-7472-4617-9465-5f6164617074,rev?*
G04 #@! TF.SameCoordinates,Original*
G04 #@! TF.FileFunction,Legend,Top*
G04 #@! TF.FilePolarity,Positive*
%FSLAX46Y46*%
G04 Gerber Fmt 4.6, Leading zero omitted, Abs format (unit mm)*
G04 Created by KiCad (PCBNEW 5.1.5-rc1) date 2019-11-07 20:29:01*
%MOMM*%
%LPD*%
G04 APERTURE LIST*
%ADD10C,0.150000*%
G04 APERTURE END LIST*
D10*
X-9428571Y-11785714D02*
X-9428571Y-12452380D01*
X-9666666Y-11404761D02*
X-9904761Y-12119047D01*
X-9285714Y-12119047D01*
X-8428571Y-11452380D02*
X-8904761Y-11452380D01*
X-8952380Y-11928571D01*
X-8904761Y-11880952D01*
X-8809523Y-11833333D01*
X-8571428Y-11833333D01*
X-8476190Y-11880952D01*
X-8428571Y-11928571D01*
X-8380952Y-12023809D01*
X-8380952Y-12261904D01*
X-8428571Y-12357142D01*
X-8476190Y-12404761D01*
X-8571428Y-12452380D01*
X-8809523Y-12452380D01*
X-8904761Y-12404761D01*
X-8952380Y-12357142D01*
X-8095238Y-11785714D02*
X-7714285Y-11785714D01*
X-7952380Y-12452380D02*
X-7952380Y-11595238D01*
X-7904761Y-11500000D01*
X-7809523Y-11452380D01*
X-7714285Y-11452380D01*
X-6857142Y-12452380D02*
X-7428571Y-12452380D01*
X-7142857Y-12452380D02*
X-7142857Y-11452380D01*
X-7238095Y-11595238D01*
X-7333333Y-11690476D01*
X-7428571Y-11738095D01*
X-6047619Y-12404761D02*
X-6142857Y-12452380D01*
X-6333333Y-12452380D01*
X-6428571Y-12404761D01*
X-6476190Y-12309523D01*
X-6476190Y-11928571D01*
X-6428571Y-11833333D01*
X-6333333Y-11785714D01*
X-6142857Y-11785714D01*
X-6047619Y-11833333D01*
X-6000000Y-11928571D01*
X-6000000Y-12023809D01*
X-6476190Y-12119047D01*
X-5142857Y-11452380D02*
X-5333333Y-11452380D01*
X-5428571Y-11500000D01*
X-5476190Y-11547619D01*
X-5571428Y-11690476D01*
X-5619047Y-11880952D01*
X-5619047Y-12261904D01*
X-5571428Y-12357142D01*
X-5523809Y-12404761D01*
X-5428571Y-12452380D01*
X-5238095Y-12452380D01*
X-5142857Y-12404761D01*
X-5095238Y-12357142D01*
X-5047619Y-12261904D01*
X-5047619Y-12023809D01*
X-5095238Y-11928571D01*
X-5142857Y-11880952D01*
X-5238095Y-11833333D01*
X-5428571Y-11833333D01*
X-5523809Y-11880952D01*
X-5571428Y-11928571D01*
X-5619047Y-12023809D01*
X-4428571Y-11452380D02*
X-4333333Y-11452380D01*
X-4238095Y-11500000D01*
X-4190476Y-11547619D01*
X-4142857Y-11642857D01*
X-4095238Y-11833333D01*
X-4095238Y-12071428D01*
X-4142857Y-12261904D01*
X-4190476Y-12357142D01*
X-4238095Y-12404761D01*
X-4333333Y-12452380D01*
X-4428571Y-12452380D01*
X-4523809Y-12404761D01*
X-4571428Y-12357142D01*
X-4619047Y-12261904D01*
X-4666666Y-12071428D01*
X-4666666Y-11833333D01*
X-4619047Y-11642857D01*
X-4571428Y-11547619D01*
X-4523809Y-11500000D01*
X-4428571Y-11452380D01*
X-7783333Y10547619D02*
X-7783333Y9833333D01*
X-7830952Y9690476D01*
X-7926190Y9595238D01*
X-8069047Y9547619D01*
X-8164285Y9547619D01*
X-6783333Y9547619D02*
X-7354761Y9547619D01*
X-7069047Y9547619D02*
X-7069047Y10547619D01*
X-7164285Y10404761D01*
X-7259523Y10309523D01*
X-7354761Y10261904D01*
X-9333333Y3547619D02*
X-9333333Y2833333D01*
X-9380952Y2690476D01*
X-9476190Y2595238D01*
X-9619047Y2547619D01*
X-9714285Y2547619D01*
X-8904761Y3452380D02*
X-8857142Y3500000D01*
X-8761904Y3547619D01*
X-8523809Y3547619D01*
X-8428571Y3500000D01*
X-8380952Y3452380D01*
X-8333333Y3357142D01*
X-8333333Y3261904D01*
X-8380952Y3119047D01*
X-8952380Y2547619D01*
X-8333333Y2547619D01*
X-9333333Y-3452380D02*
X-9333333Y-4166666D01*
X-9380952Y-4309523D01*
X-9476190Y-4404761D01*
X-9619047Y-4452380D01*
X-9714285Y-4452380D01*
X-8952380Y-3452380D02*
X-8333333Y-3452380D01*
X-8666666Y-3833333D01*
X-8523809Y-3833333D01*
X-8428571Y-3880952D01*
X-8380952Y-3928571D01*
X-8333333Y-4023809D01*
X-8333333Y-4261904D01*
X-8380952Y-4357142D01*
X-8428571Y-4404761D01*
X-8523809Y-4452380D01*
X-8809523Y-4452380D01*
X-8904761Y-4404761D01*
X-8952380Y-4357142D01*
X7116666Y9547619D02*
X7116666Y8833333D01*
X7069047Y8690476D01*
X6973809Y8595238D01*
X6830952Y8547619D01*
X6735714Y8547619D01*
X8021428Y9214285D02*
X8021428Y8547619D01*
X7783333Y9595238D02*
X7545238Y8880952D01*
X8164285Y8880952D01*
X8666666Y3547619D02*
X8666666Y2833333D01*
X8619047Y2690476D01*
X8523809Y2595238D01*
X8380952Y2547619D01*
X8285714Y2547619D01*
X9619047Y3547619D02*
X9142857Y3547619D01*
X9095238Y3071428D01*
X9142857Y3119047D01*
X9238095Y3166666D01*
X9476190Y3166666D01*
X9571428Y3119047D01*
X9619047Y3071428D01*
X9666666Y2976190D01*
X9666666Y2738095D01*
X9619047Y2642857D01*
X9571428Y2595238D01*
X9476190Y2547619D01*
X9238095Y2547619D01*
X9142857Y2595238D01*
X9095238Y2642857D01*
X8666666Y-3452380D02*
X8666666Y-4166666D01*
X8619047Y-4309523D01*
X8523809Y-4404761D01*
X8380952Y-4452380D01*
X8285714Y-4452380D01*
X9571428Y-3452380D02*
X9380952Y-3452380D01*
X9285714Y-3500000D01*
X9238095Y-3547619D01*
X9142857Y-3690476D01*
X9095238Y-3880952D01*
X9095238Y-4261904D01*
X9142857Y-4357142D01*
X9190476Y-4404761D01*
X9285714Y-4452380D01*
X9476190Y-4452380D01*
X9571428Y-4404761D01*
X9619047Y-4357142D01*
X9666666Y-4261904D01*
X9666666Y-4023809D01*
X9619047Y-3928571D01*
X9571428Y-3880952D01*
X9476190Y-3833333D01*
X9285714Y-3833333D01*
X9190476Y-3880952D01*
X9142857Y-3928571D01*
X9095238Y-4023809D01*
X-3583333Y11547619D02*
X-3583333Y10833333D01*
X-3630952Y10690476D01*
X-3726190Y10595238D01*
X-3869047Y10547619D01*
X-3964285Y10547619D01*
X-2964285Y11119047D02*
X-3059523Y11166666D01*
X-3107142Y11214285D01*
X-3154761Y11309523D01*
X-3154761Y11357142D01*
X-3107142Y11452380D01*
X-3059523Y11500000D01*
X-2964285Y11547619D01*
X-2773809Y11547619D01*
X-2678571Y11500000D01*
X-2630952Y11452380D01*
X-2583333Y11357142D01*
X-2583333Y11309523D01*
X-2630952Y11214285D01*
X-2678571Y11166666D01*
X-2773809Y11119047D01*
X-2964285Y11119047D01*
X-3059523Y11071428D01*
X-3107142Y11023809D01*
X-3154761Y10928571D01*
X-3154761Y10738095D01*
X-3107142Y10642857D01*
X-3059523Y10595238D01*
X-2964285Y10547619D01*
X-2773809Y10547619D01*
X-2678571Y10595238D01*
X-2630952Y10642857D01*
X-2583333Y10738095D01*
X-2583333Y10928571D01*
X-2630952Y11023809D01*
X-2678571Y11071428D01*
X-2773809Y11119047D01*
X2916666Y-10452380D02*
X2916666Y-11166666D01*
X2869047Y-11309523D01*
X2773809Y-11404761D01*
X2630952Y-11452380D01*
X2535714Y-11452380D01*
X3440476Y-11452380D02*
X3630952Y-11452380D01*
X3726190Y-11404761D01*
X3773809Y-11357142D01*
X3869047Y-11214285D01*
X3916666Y-11023809D01*
X3916666Y-10642857D01*
X3869047Y-10547619D01*
X3821428Y-10500000D01*
X3726190Y-10452380D01*
X3535714Y-10452380D01*
X3440476Y-10500000D01*
X3392857Y-10547619D01*
X3345238Y-10642857D01*
X3345238Y-10880952D01*
X3392857Y-10976190D01*
X3440476Y-11023809D01*
X3535714Y-11071428D01*
X3726190Y-11071428D01*
X3821428Y-11023809D01*
X3869047Y-10976190D01*
X3916666Y-10880952D01*
M02*
